<svg width="181" height="27" viewBox="0 0 181 27" xmlns="http://www.w3.org/2000/svg"><defs><linearGradient x1="50%" y1="0%" x2="50%" y2="100%" id="a"><stop stop-color="#6AA643" offset="0%"/><stop stop-color="#7DB24A" offset="96.793%"/></linearGradient><linearGradient x1="50%" y1="0%" x2="50%" y2="100%" id="b"><stop stop-color="#6AA643" offset="0%"/><stop stop-color="#7DB24A" offset="96.793%"/></linearGradient><linearGradient x1="50%" y1="0%" x2="50%" y2="100%" id="c"><stop stop-color="#6AA643" offset="0%"/><stop stop-color="#7DB24A" offset="96.793%"/></linearGradient><linearGradient x1="50%" y1="0%" x2="50%" y2="100%" id="d"><stop stop-color="#6AA643" offset="0%"/><stop stop-color="#7DB24A" offset="96.793%"/></linearGradient><linearGradient x1="50%" y1="0%" x2="50%" y2="100%" id="e"><stop stop-color="#6AA643" offset="0%"/><stop stop-color="#7DB24A" offset="96.793%"/></linearGradient><linearGradient x1="50%" y1="0%" x2="50%" y2="100%" id="f"><stop stop-color="#6AA643" offset="0%"/><stop stop-color="#7DB24A" offset="96.793%"/></linearGradient><linearGradient x1="50%" y1="0%" x2="50%" y2="100%" id="g"><stop stop-color="#6AA643" offset="0%"/><stop stop-color="#7DB24A" offset="96.793%"/></linearGradient></defs><g fill-rule="nonzero" fill="none"><path d="M2.81 23.58h3.975c2.761 0 4.785-1.804 4.785-4.487 0-2.47-1.69-4.441-4.666-4.441H2.785v8.929h.024Zm0-11.374h3.213c2.405 0 3.785-1.71 3.785-3.894 0-2.185-1.19-3.729-3.69-3.729H2.81v7.623ZM0 3.609c0-.926.452-1.638 1.5-1.638h4.975c4.048 0 6.167 3.016 6.167 5.77 0 2.66-1.31 4.679-3.19 5.296v.072c2.76.308 4.951 2.778 4.951 5.984 0 3.8-2.666 7.052-7.475 7.052H1.5c-1.071 0-1.5-.712-1.5-1.638V3.609ZM27.52 16.053c0-2.588-1.404-5.58-4.523-5.58-3.5-.143-4.761 2.825-4.856 5.58h9.38Zm-9.38 2.233c0 3.087 1.858 5.509 5.048 5.509 3.761 0 4.713-2.446 5.785-2.446.523 0 1.023.474 1.023 1.33 0 1.448-3.5 3.704-6.832 3.704-5.452 0-7.832-4.44-7.832-9.238 0-4.891 2.88-9.237 7.665-9.237 4.667 0 7.357 4.44 7.357 8.786 0 1.045-.358 1.592-1.572 1.592H18.141ZM43.328 16.053c0-2.588-1.405-5.58-4.523-5.58-3.5-.143-4.761 2.825-4.857 5.58h9.38Zm-9.38 2.233c0 3.087 1.857 5.509 5.048 5.509 3.76 0 4.713-2.446 5.784-2.446.524 0 1.024.474 1.024 1.33 0 1.448-3.5 3.704-6.832 3.704-5.452 0-7.833-4.44-7.833-9.238-.024-4.891 2.88-9.26 7.642-9.26 4.666 0 7.356 4.44 7.356 8.786 0 1.044-.357 1.59-1.57 1.59H33.947v.025ZM47.494 9.499c0-.974.548-1.591 1.405-1.591s1.405.617 1.405 1.59v.713l.07.071c1.263-1.71 3.024-2.374 4.715-2.374 2.642 0 5.951 1.757 5.951 6.863v10.021c0 .973-.547 1.591-1.404 1.591-.857 0-1.405-.618-1.405-1.59v-9.88c0-3.158-2.095-4.44-3.952-4.44-1.857 0-3.952 1.282-3.952 4.44v9.855c0 .974-.547 1.591-1.404 1.591-.857 0-1.405-.617-1.405-1.59V9.498h-.024Z" fill="#4A4A4A"/><path d="M61.23 5.486a3.264 3.264 0 0 1-.213-1.259c0-1.425 1.19-2.446 2.475-2.446 1.096 0 1.762.736 2.19 1.663l4.977 14.13 4.975-14.13c.429-.927 1.095-1.663 2.19-1.663 1.286 0 2.476 1.021 2.476 2.446 0 .475-.071.807-.214 1.259l-7.023 18.926c-.429 1.092-.952 1.971-2.381 1.971-1.404 0-1.952-.879-2.38-1.97L61.23 5.485Z" fill="url(#a)"/><path d="M89.775 15.507c-.262-2.137-1.547-3.728-3.69-3.728-2.047 0-3.428 1.662-3.666 3.728h7.356Zm-7.26 3.253c.309 2.422 2.213 3.539 4.356 3.539 2.38 0 4.023-1.971 5.237-1.971 1 0 1.905 1.045 1.905 2.113 0 2.114-4.119 4.132-7.547 4.132-5.19 0-8.666-4.013-8.666-9.404 0-4.963 3.405-9.475 8.285-9.475 5 0 8.309 4.82 8.309 8.906 0 1.448-.62 2.184-2.024 2.184h-9.856v-.024Z" fill="url(#b)"/><path d="M95.965 10.33c0-1.638 1.214-2.446 2.38-2.446 1.214 0 2.238.475 2.238 2.042h.072c.857-1.353 1.81-2.042 3.237-2.042 1.12 0 2.238.855 2.238 2.612 0 1.591-1.38 1.71-2.761 2.375-1.381.689-2.786 1.33-2.786 3.253v7.504c0 1.639-.952 2.708-2.309 2.708-1.357 0-2.31-1.093-2.31-2.708V10.33Z" fill="url(#c)"/><path d="M106.654 10.615c0-1.638.952-2.707 2.31-2.707 1.356 0 2.309 1.092 2.309 2.707v13.037c0 1.639-.953 2.708-2.31 2.708-1.357 0-2.309-1.093-2.309-2.708V10.615Zm4.928-7.362c0 1.52-1.166 2.826-2.595 2.826-1.38 0-2.595-1.33-2.595-2.826 0-1.4 1.214-2.683 2.595-2.683 1.38 0 2.595 1.235 2.595 2.683Z" fill="url(#d)"/><path d="M114.915 12.372h-1.024c-1.261 0-2.023-.807-2.023-2.137 0-1.211.857-2.137 2.023-2.137h1.024V5.58c0-3.609 2.024-5.58 4.856-5.58 1.643 0 3.215.499 3.215 2.209 0 1.424-.62 2.066-1.905 2.066-.762 0-1.547 0-1.547 1.804v1.995h1.452c1.38 0 2.333.57 2.333 2.137 0 1.52-1 2.137-2.333 2.137h-1.452v11.28c0 1.64-.953 2.708-2.31 2.708-1.357 0-2.309-1.093-2.309-2.707V12.372Z" fill="url(#e)"/><path d="M124.2 10.615c0-1.638.952-2.707 2.309-2.707 1.357 0 2.31 1.092 2.31 2.707v13.037c0 1.639-.953 2.708-2.31 2.708-1.357 0-2.31-1.093-2.31-2.708V10.615Zm4.904-7.362c0 1.52-1.167 2.826-2.595 2.826-1.381 0-2.595-1.33-2.595-2.826 0-1.4 1.214-2.683 2.595-2.683 1.38 0 2.595 1.235 2.595 2.683Z" fill="url(#f)"/><path d="M142.364 15.507c-.262-2.137-1.547-3.728-3.69-3.728-2.047 0-3.428 1.662-3.666 3.728h7.356Zm-7.26 3.253c.309 2.422 2.213 3.539 4.356 3.539 2.38 0 4.023-1.971 5.237-1.971 1 0 1.905 1.045 1.905 2.113 0 2.114-4.119 4.132-7.547 4.132-5.19 0-8.666-4.013-8.666-9.404 0-4.963 3.405-9.475 8.285-9.475 5 0 8.309 4.82 8.309 8.906 0 1.448-.62 2.184-2.024 2.184h-9.856v-.024Z" fill="url(#b)"/><path d="M171.099 25.932c0-.428.357-.784.785-.784.429 0 .786.356.786.784a.792.792 0 0 1-.786.783.791.791 0 0 1-.785-.783M168.694 20.589c0 .356-.285.688-.285 1.14 0 .83.738 1.21 1.476 1.21.714 0 1.452-.427 1.452-1.21 0-.357-.31-.903-.31-1.07 0-.331.286-.616.643-.616.738 0 1 1.234 1 1.757 0 1.543-1.286 2.588-2.785 2.588-1.476 0-2.81-1.068-2.81-2.588 0-.57.215-1.757.905-1.757.334 0 .714.213.714.546M169.885 18.31c.69 0 1.452-.357 1.452-1.14 0-.785-.762-1.14-1.452-1.14s-1.476.355-1.476 1.14c0 .783.785 1.14 1.476 1.14m0-3.73c1.5 0 2.785 1.022 2.785 2.59 0 1.543-1.285 2.588-2.785 2.588-1.476 0-2.81-1.07-2.81-2.589.024-1.52 1.357-2.588 2.81-2.588M167.956 13.987c-.476 0-.809-.309-.809-.712 0-.38.19-.618.547-.665-.38-.356-.595-.808-.595-1.33 0-.594.262-1.116.738-1.496-.452-.404-.738-1.021-.738-1.52 0-1.164.69-1.971 1.952-1.971h2.762c.476 0 .81.309.81.712 0 .428-.31.713-.81.713h-2.524c-.57 0-1 .308-1 .83 0 .523.405.856 1 .856h2.524c.476 0 .81.309.81.712 0 .428-.31.713-.81.713h-2.524c-.57 0-1 .308-1 .83 0 .595.405.856 1 .856h2.524c.476 0 .81.308.81.712 0 .428-.31.712-.81.712h-3.857v.048Z" fill="#4A4A4A"/><path d="m158.196 17.312 1.5 3.99-3.524-2.542-3.524 2.541 1.5-3.99-3.094-2.232h3.928l1.166-3.11 1.166 3.11h3.929l-3.047 2.233ZM162.1.024c-1.357 0-2.31 1.092-2.31 2.707V9.38a6.492 6.492 0 0 0-4.404-1.71c-4.975 0-7.451 4.916-7.451 9.69 0 4.63 2.952 9.213 7.618 9.213 1.571 0 3.38-.736 4.238-2.232.285 1.282 1.023 2.042 2.31 2.042 1.356 0 2.308-1.092 2.308-2.707V2.731c0-1.639-.952-2.707-2.309-2.707Z" fill="url(#g)"/><path d="M178.5 0a2.48 2.48 0 0 1 1.617.602l.146.135c.471.47.737 1.099.737 1.763 0 .664-.266 1.292-.737 1.763A2.487 2.487 0 0 1 178.5 5a2.487 2.487 0 0 1-1.763-.737A2.487 2.487 0 0 1 176 2.5c0-.664.266-1.292.737-1.763A2.487 2.487 0 0 1 178.5 0Zm0 .568c-1.063 0-1.932.87-1.932 1.932 0 1.063.87 1.932 1.932 1.932 1.063 0 1.932-.87 1.932-1.932 0-1.063-.87-1.932-1.932-1.932Zm.785.712c.23.145.338.363.338.616 0 .302-.133.52-.398.676.108.097.193.218.265.363.085.193.157.483.23.894l.012.096h-.556l-.012-.072c-.096-.725-.326-1.087-.664-1.087h-.399v1.16h-.543V1.146l.072-.012c.737-.12 1.293-.096 1.655.145Zm-.882.254c-.12 0-.23 0-.314.012v.76h.387c.241 0 .41-.048.507-.144a.329.329 0 0 0 .085-.242c0-.096 0-.386-.665-.386Z" fill="#4A4A4A"/></g></svg>