<svg width="18" height="18" xmlns="http://www.w3.org/2000/svg"><path d="m5.986 16.493-1.737 1.154a.563.563 0 0 1-.874-.469V15.12C1.317 13.565 0 11.174 0 8.49 0 3.805 4.034 0 9 0c4.974 0 9 3.797 9 8.49 0 4.684-4.034 8.49-9 8.49a9.485 9.485 0 0 1-3.014-.487ZM7.81 8.49c.52.2.9.75.9 1.38 0 .95-.59 2.13-2.53 2.13h-2.5a.18.18 0 0 1-.18-.18V5.18c0-.1.08-.18.18-.18h2.5c1.94 0 2.53 1.19 2.53 2.14 0 .48-.37 1.13-.9 1.35Zm-1.53 2.02c.7 0 .81-.48.81-.64 0-.21-.1-.65-.79-.67H5.09v1.31h1.19Zm.02-2.64c.69-.02.79-.54.79-.73 0-.16-.11-.66-.81-.66H5.09v1.39H6.3Zm8.837-2.71-3.08 6.77a.267.267 0 0 1-.48 0l-3.07-6.77c-.03-.07.03-.16.11-.16h1.43c.11 0 .21.07.25.17l1.53 3.8 1.53-3.8c.04-.1.14-.17.25-.17h1.43c.08 0 .14.09.1.16Z" fill="#81B44C" fill-rule="evenodd"/></svg>