<svg width="46" height="46" xmlns="http://www.w3.org/2000/svg"><path d="m42.82 45.371 2.542-2.543c.845-.844.845-2.21.009-3.054l-8.957-8.958a2.155 2.155 0 0 0-1.528-.629h-1.464a18.596 18.596 0 0 0 3.953-11.5C37.375 8.364 29.01 0 18.687 0 8.364 0 0 8.364 0 18.687c0 10.324 8.364 18.688 18.687 18.688 4.34 0 8.329-1.474 11.5-3.953v1.464c0 .575.225 1.123.63 1.528l8.957 8.957c.844.845 2.21.845 3.045 0zM18.686 30.187c-6.352 0-11.5-5.139-11.5-11.5 0-6.351 5.14-11.5 11.5-11.5 6.352 0 11.5 5.14 11.5 11.5 0 6.352-5.139 11.5-11.5 11.5z" fill="#81B44C"/></svg>