<svg width="136" height="17" xmlns="http://www.w3.org/2000/svg"><path d="m9.667 13.846-4.82 2.144a.9.9 0 0 1-1.248-1.002l.878-4.331L.903 7.711a.9.9 0 0 1 .463-1.588l5.094-.626 2.43-4.165a.9.9 0 0 1 1.554 0l2.43 4.165 5.094.626a.9.9 0 0 1 .463 1.588l-3.574 2.946.878 4.331a.9.9 0 0 1-1.247 1.002l-4.82-2.144zm29.104 0-4.82 2.144a.9.9 0 0 1-1.248-1.002l.878-4.331-3.574-2.946a.9.9 0 0 1 .463-1.588l5.094-.626 2.43-4.165a.9.9 0 0 1 1.554 0l2.43 4.165 5.094.626a.9.9 0 0 1 .463 1.588l-3.574 2.946.878 4.331a.9.9 0 0 1-1.247 1.002l-4.82-2.144zm29.104 0-4.82 2.144a.9.9 0 0 1-1.248-1.002l.878-4.331-3.574-2.946a.9.9 0 0 1 .463-1.588l5.093-.626 2.43-4.165a.9.9 0 0 1 1.555 0l2.43 4.165 5.094.626a.9.9 0 0 1 .463 1.588l-3.574 2.946.878 4.331a.9.9 0 0 1-1.247 1.002l-4.821-2.144zm29.104 0-4.82 2.144a.9.9 0 0 1-1.248-1.002l.878-4.331-3.574-2.946a.9.9 0 0 1 .463-1.588l5.093-.626 2.43-4.165a.9.9 0 0 1 1.555 0l2.43 4.165 5.094.626a.9.9 0 0 1 .463 1.588l-3.574 2.946.878 4.331a.9.9 0 0 1-1.248 1.002l-4.82-2.144zm29.104 0-4.82 2.144a.9.9 0 0 1-1.248-1.002l.878-4.331-3.574-2.946a.9.9 0 0 1 .463-1.588l5.093-.626 2.43-4.165a.9.9 0 0 1 1.555 0l2.43 4.165 5.094.626a.9.9 0 0 1 .463 1.588l-3.574 2.946.878 4.331a.9.9 0 0 1-1.248 1.002l-4.82-2.144z" fill="#4A3B8F" fill-rule="evenodd"/></svg>