<svg width="80" height="80" xmlns="http://www.w3.org/2000/svg"><g fill="none" fill-rule="evenodd"><circle fill="#353167" fill-rule="nonzero" cx="40" cy="40" r="40"/><path d="M66.667 40c0 14.716-11.916 26.667-26.667 26.667-14.733 0-26.667-11.934-26.667-26.667 0-14.76 11.974-26.667 26.667-26.667 14.693 0 26.667 11.9 26.667 26.667" fill="#9B9B9B"/><path d="M61.333 40c0 11.781-9.552 21.333-21.333 21.333-11.781 0-21.333-9.552-21.333-21.333 0-11.781 9.552-21.333 21.333-21.333 11.781 0 21.333 9.552 21.333 21.333" fill="#6FDAF1"/><path d="M58.667 40a2.668 2.668 0 0 1-5.334 0 2.668 2.668 0 0 1 5.334 0" fill="#FFF"/><path d="M42.667 56a2.668 2.668 0 0 1-5.334 0 2.668 2.668 0 0 1 5.334 0" fill="#FFF"/><path d="M40 18.667c-11.781 0-21.333 9.552-21.333 21.333 0 5.87 2.373 11.187 6.21 15.044l30.167-30.167A21.265 21.265 0 0 0 40 18.667" fill="#C9F2F8"/><path d="M42.667 24a2.668 2.668 0 0 1-5.334 0 2.668 2.668 0 0 1 5.334 0" fill="#FFF"/><path d="M26.667 40a2.668 2.668 0 0 1-5.334 0 2.668 2.668 0 0 1 5.334 0" fill="#FFF"/><path d="m41.724 43.61-8-8a1.332 1.332 0 0 1 0-1.886 1.332 1.332 0 0 1 1.885 0l8 8a1.332 1.332 0 0 1 0 1.885 1.332 1.332 0 0 1-1.885 0" fill="#FA5655"/><path d="M36.39 43.61a1.332 1.332 0 0 1 0-1.886l13.334-13.333a1.332 1.332 0 0 1 1.885 0 1.332 1.332 0 0 1 0 1.885L38.276 43.609a1.332 1.332 0 0 1-1.885 0" fill="#3E3E3F"/></g></svg>