<svg width="100" height="70" xmlns="http://www.w3.org/2000/svg"><path d="M50 35c9.672 0 17.5-7.828 17.5-17.5S59.672 0 50 0 32.5 7.828 32.5 17.5 40.328 35 50 35zm-35-5c5.516 0 10-4.484 10-10s-4.484-10-10-10S5 14.484 5 20s4.484 10 10 10zm70 0c5.515 0 10-4.484 10-10s-4.485-10-10-10c-5.516 0-10 4.484-10 10s4.484 10 10 10zm10 25c2.765 0 5-2.234 5-5v-5c0-5.516-4.485-10-10-10H80a9.97 9.97 0 0 0-7.047 2.906C79.25 41.36 83.719 47.594 84.687 55H95zm-79.703 0c.984-7.406 5.453-13.64 11.75-17.094A9.97 9.97 0 0 0 20 35H10C4.484 35 0 39.484 0 45v5c0 2.766 2.234 5 5 5h10.297zM72.5 70c4.14 0 7.5-3.36 7.5-7.5V58c0-9.938-8.063-18-18-18h-1.297c-3.25 1.562-6.86 2.5-10.703 2.5-3.844 0-7.438-.938-10.703-2.5H38c-9.938 0-18 8.062-18 18v4.5c0 4.14 3.36 7.5 7.5 7.5h45z" fill="#C7DBB3"/></svg>