<svg width="108" height="108" xmlns="http://www.w3.org/2000/svg">
    <defs>
        <filter x="-13.3%" y="-13.3%" width="126.7%" height="126.7%" filterUnits="objectBoundingBox" id="a">
            <feOffset dy="2" in="SourceAlpha" result="shadowOffsetOuter1"/>
            <feGaussianBlur stdDeviation="2" in="shadowOffsetOuter1" result="shadowBlurOuter1"/>
            <feColorMatrix values="0 0 0 0 0.121568627 0 0 0 0 0.180392157 0 0 0 0 0.392156863 0 0 0 0.2 0" in="shadowBlurOuter1" result="shadowMatrixOuter1"/>
            <feMerge>
                <feMergeNode in="shadowMatrixOuter1"/>
                <feMergeNode in="SourceGraphic"/>
            </feMerge>
        </filter>
    </defs>
    <g filter="url(#a)" transform="translate(9 9)" fill="none" fill-rule="evenodd">
        <circle fill="#FFF" fill-rule="nonzero" cx="45" cy="45" r="45"/>
        <g stroke-linecap="round" stroke-linejoin="round" stroke-width="1.481">
            <path d="m31.372 27.395 11.658-3.14a5.358 5.358 0 0 1 3.304.012l11.514 3.783c.748.246 1.412.7 1.914 1.31l4.854 5.895c.928 1.027 1.116 2.32.088 3.245a2.468 2.468 0 0 1-3.277.026l-6.426-5.594-4.647-.82a4.576 4.576 0 0 0-3.954 1.2c-.835.798-.462 2.21.657 2.484l5.819 1.422c.212.052.427.089.644.11l4.11.389c1.533.145 2.617 1.576 2.351 3.104a2.643 2.643 0 0 1-2.771 2.193l-5.406-.357-7.434-1.312-12.998-.414V27.395z" stroke="#1F2E64"/>
            <path stroke="#1F2E64" d="M25 42.173h6.372V25.866H25zM57.846 45.962a21.292 21.292 0 0 1 .306-2.826l-.306 2.826zM57.713 58.849l-.458 6.484 1.358 1.577 1.252.09 1.566-1.368.648-9.163"/>
            <path d="m57.903 56.17-.19 2.679.19-2.678zM59.775 48.855a.744.744 0 0 0 .687.797c.407.03.762-.28.791-.691a.744.744 0 0 0-.686-.797.742.742 0 0 0-.792.691z" stroke="#1F2E64"/>
            <path d="M56.67 46.751c-2.35 2.054-2.604 5.64-.565 8.008a5.61 5.61 0 0 0 7.952.57c2.35-2.054 2.604-5.64.565-8.008a5.61 5.61 0 0 0-7.951-.57z" stroke="#FAB71B"/>
            <path d="M59.96 39.438c.9.067 1.434 2.784 1.19 6.065-.094 1.28-.294 2.456-.554 3.412" stroke="#1F2E64"/>
        </g>
    </g>
</svg>
