<svg width="51" height="45" xmlns="http://www.w3.org/2000/svg" xmlns:xlink="http://www.w3.org/1999/xlink">
    <defs>
        <filter x="-19.4%" y="-17.7%" width="139.5%" height="146.4%" filterUnits="objectBoundingBox" id="a">
            <feMorphology radius=".769" operator="dilate" in="SourceAlpha" result="shadowSpreadOuter1"/>
            <feOffset dy="2" in="shadowSpreadOuter1" result="shadowOffsetOuter1"/>
            <feGaussianBlur stdDeviation="2" in="shadowOffsetOuter1" result="shadowBlurOuter1"/>
            <feComposite in="shadowBlurOuter1" in2="SourceAlpha" operator="out" result="shadowBlurOuter1"/>
            <feColorMatrix values="0 0 0 0 0.121568627 0 0 0 0 0.180392157 0 0 0 0 0.392156863 0 0 0 0.2 0" in="shadowBlurOuter1"/>
        </filter>
        <path d="M9.21 34c4.312 0 7.545-3.154 7.545-8.081 0-4.435-3.43-7.194-7.545-7.194-.293 0-.685 0-.98.098 0-5.814 2.94-9.56 8.82-12.516L13.913 0C4.507 4.632 0 11.826 0 21.09 0 29.17 3.135 34 9.21 34zm22.951 0c4.312 0 7.545-3.154 7.545-8.081 0-4.435-3.43-7.194-7.545-7.194-.294 0-.686 0-.98.098 0-5.814 2.94-9.56 8.819-12.516L36.865 0C27.458 4.632 22.95 11.826 22.95 21.09c0 8.081 3.135 12.91 9.21 12.91z" id="b"/>
    </defs>
    <g transform="translate(5 4)" fill-rule="nonzero" fill="none">
        <use fill="#000" filter="url(#a)" xlink:href="#b"/>
        <use stroke="#1F2E64" stroke-width="1.538" fill="#1F2E64" xlink:href="#b"/>
    </g>
</svg>
