<svg width="152" height="45" xmlns="http://www.w3.org/2000/svg">
    <g fill-rule="nonzero" fill="none">
        <path fill="#1F2F64" d="M63.3 5.765V22.56h-2.88l-6.5-9.12v9.12H50.1V5.765H53l6.5 9.115V5.765zM72.155 19.68a3.145 3.145 0 0 0 2.305-.91l2.88 1.655c-1.175 1.63-2.95 2.47-5.23 2.47-4.105 0-6.65-2.76-6.65-6.335a6.155 6.155 0 0 1 6.385-6.335c3.5 0 6.095 2.715 6.095 6.335.001.484-.047.966-.145 1.44h-8.5c.435 1.25 1.54 1.68 2.86 1.68zm2.21-4.365a2.705 2.705 0 0 0-5.16 0h5.16zM79.62 7.345A2.16 2.16 0 1 1 81.78 9.5a2.185 2.185 0 0 1-2.16-2.155zm.36 3.215h3.6v12H80l-.02-12zM98.53 10.56v11.4c0 4.03-3.14 5.735-6.335 5.735-2.5 0-4.58-.935-5.685-2.905L89.58 23c.455.84 1.15 1.5 2.735 1.5 1.68 0 2.71-.865 2.71-2.57v-1.075a4.25 4.25 0 0 1-3.5 1.56 5.94 5.94 0 0 1-5.905-6.095 5.945 5.945 0 0 1 5.905-6.095 4.265 4.265 0 0 1 3.5 1.56V10.56h3.505zm-3.5 5.76c0-1.655-1.195-2.78-2.9-2.78-1.705 0-2.905 1.125-2.905 2.78 0 1.655 1.2 2.785 2.905 2.785a2.715 2.715 0 0 0 2.895-2.785h.005zM112.69 15.195v7.365h-3.6v-6.84c0-1.5-.935-2.18-2.085-2.18-1.32 0-2.235.765-2.235 2.47v6.55h-3.6V5.765h3.6v5.925c.65-.885 1.85-1.465 3.435-1.465 2.42 0 4.485 1.73 4.485 4.97zM128.075 16.56c0 3.575-2.59 6.335-5.735 6.335a4.5 4.5 0 0 1-3.575-1.46v1.125h-3.6V5.765h3.6v5.925a4.5 4.5 0 0 1 3.575-1.465c3.16 0 5.735 2.775 5.735 6.335zm-3.6 0a2.855 2.855 0 1 0-5.71 0 2.855 2.855 0 0 0 5.71 0zM129.5 16.56a6.36 6.36 0 1 1 6.36 6.335 6.29 6.29 0 0 1-6.36-6.335zm9.12 0a2.76 2.76 0 1 0-5.5 0 2.76 2.76 0 1 0 5.5 0zM151.5 10.325V14.4c-1.5-.24-3.6.36-3.6 2.74v5.42h-3.6v-12h3.6v2.14c.455-1.61 2.065-2.375 3.6-2.375zM48.9 27.365h4.035l2.9 11.755 3.24-11.755h3.12l3.24 11.755 2.905-11.755h4.03L67.74 44.16h-4.37l-2.735-9.91-2.735 9.91h-4.37zM84.97 36.795v7.365h-3.6v-6.84c0-1.5-.935-2.18-2.085-2.18-1.32 0-2.23.765-2.23 2.47v6.55h-3.6V27.365h3.6v5.925c.645-.885 1.845-1.465 3.43-1.465 2.425 0 4.485 1.73 4.485 4.97zM86.845 38.16a6.36 6.36 0 1 1 6.36 6.34 6.29 6.29 0 0 1-6.36-6.34zm9.12 0a2.76 2.76 0 1 0-2.76 2.84 2.69 2.69 0 0 0 2.76-2.84z"/>
        <path d="M42.14 5.115 37.71.405A1.28 1.28 0 0 0 36.79 0a1.27 1.27 0 0 0-.925.405l-4.445 4.71a1.32 1.32 0 0 0-.34.885v9.775L26.875 5.57c-.06-.167-.15-.32-.265-.455L22.165.405a1.315 1.315 0 0 0-1.845 0l-4.435 4.71-.15.19a2.07 2.07 0 0 0-.1.215.15.15 0 0 0-.025.075 1 1 0 0 0-.04.165.765.765 0 0 0-.025.225v9.79L11.33 5.57c-.06-.167-.15-.32-.265-.455L6.62.405a1.3 1.3 0 0 0-1.835 0L.34 5.115A1.27 1.27 0 0 0 0 6v37.75A1.256 1.256 0 0 0 1.265 45h8.875c.697 0 1.262-.563 1.265-1.26v-9.795l4.205 10.19v.08c.125.322.382.574.705.695.061.026.125.046.19.06.088.007.177.007.265 0h8.915a1.03 1.03 0 0 0 .345-.05 1.41 1.41 0 0 0 .225-.09h.04a1.18 1.18 0 0 0 .24-.16c.075-.069.143-.146.2-.23a1.715 1.715 0 0 0 .19-.44 2.5 2.5 0 0 0 0-.265v-9.79L31.12 44.11v.08a1.2 1.2 0 0 0 .71.695c.06.027.121.047.185.06.088.007.177.007.265 0h8.955a1 1 0 0 0 .34-.05 1.41 1.41 0 0 0 .225-.09h.04a1.12 1.12 0 0 0 .44-.39c.05-.08.091-.163.125-.25a.78.78 0 0 0 .065-.19 1.635 1.635 0 0 0 0-.265V6a1.265 1.265 0 0 0-.33-.885zM8.88 42.47H2.525V6.5l.215-.225 2.955-3.16L8.88 6.5v35.97zm8.76 0-2.105-5.125-4.13-10.03v-14.95l4.13 10.025 2.5 6.15 5.76 13.93H17.64zm.42-20.56V6.5l3.18-3.385L24.425 6.5v30.87L18.06 21.91zm15.13 20.56-2.11-5.125-4.13-10.03V12.39l4.13 10 2.5 6.125 5.76 13.955h-6.15zm6.78-5.1-6.365-15.46V6.5l3.185-3.385L39.97 6.5v30.87z" fill="#FAB71B"/>
    </g>
</svg>
