<svg width="132" height="91" xmlns="http://www.w3.org/2000/svg">
    <g fill-rule="nonzero" fill="none">
        <path d="M127.756 69.428c-42.767-5.1-80.746-5.1-123.512 0a1246.296 1246.296 0 0 1 4.104-17.557A1229.77 1229.77 0 0 0 0 35.812c45.583-5.465 86.418-5.465 132 0a1229.46 1229.46 0 0 0-8.35 16.059 1262.044 1262.044 0 0 1 4.107 17.557" fill="#213A91"/>
        <path d="m105.67 33.186 15.773 7.92-12.42-.282-3.352-7.638zm-79.646 0-15.772 7.92 12.419-.282 3.353-7.638z" fill="#000"/>
        <path d="m68.177 2.814.003-.002a2.874 2.874 0 0 1 4.367.43l.001.003a2.877 2.877 0 0 0 3.927.78l.003-.003a2.874 2.874 0 0 1 4.199 1.273l.001.004a2.874 2.874 0 0 0 3.698 1.53l.005-.001a2.873 2.873 0 0 1 3.87 2.065v.005a2.875 2.875 0 0 0 3.328 2.222l.004-.001a2.872 2.872 0 0 1 3.392 2.78v.004a2.87 2.87 0 0 0 2.83 2.827h.005a2.872 2.872 0 0 1 2.783 3.389v.004a2.87 2.87 0 0 0 2.224 3.325h.004a2.87 2.87 0 0 1 2.068 3.866l-.002.004a2.87 2.87 0 0 0 1.532 3.695h.004a2.868 2.868 0 0 1 1.273 4.195l-.002.005a2.867 2.867 0 0 0 .781 3.921l.004.002a2.867 2.867 0 0 1 .43 4.361l-.004.004a2.87 2.87 0 0 0 0 3.999l.003.003a2.867 2.867 0 0 1-.43 4.362l-.003.002a2.868 2.868 0 0 0-.782 3.922l.003.003c.966 1.491.36 3.491-1.273 4.195l-.004.002a2.868 2.868 0 0 0-1.532 3.693l.002.005a2.869 2.869 0 0 1-2.068 3.865l-.004.002a2.869 2.869 0 0 0-2.225 3.324l.001.004a2.871 2.871 0 0 1-2.783 3.389h-.004a2.871 2.871 0 0 0-2.831 2.826v.005a2.872 2.872 0 0 1-3.392 2.78h-.004a2.872 2.872 0 0 0-3.328 2.22v.005a2.873 2.873 0 0 1-3.87 2.066h-.005a2.873 2.873 0 0 0-3.698 1.53l-.001.003a2.874 2.874 0 0 1-4.199 1.272l-.003-.002a2.875 2.875 0 0 0-3.927.78l-.001.004a2.876 2.876 0 0 1-4.367.429l-.003-.003a2.875 2.875 0 0 0-4.003 0l-.004.003a2.874 2.874 0 0 1-4.365-.429l-.003-.004a2.874 2.874 0 0 0-3.925-.78l-.005.002a2.874 2.874 0 0 1-4.198-1.272l-.002-.004a2.873 2.873 0 0 0-3.698-1.53l-.003.001a2.873 2.873 0 0 1-3.87-2.066l-.001-.004a2.874 2.874 0 0 0-3.329-2.221h-.004a2.872 2.872 0 0 1-3.392-2.78v-.005a2.87 2.87 0 0 0-2.83-2.826h-.004a2.872 2.872 0 0 1-2.784-3.389l.001-.004c.281-1.526-.704-3-2.223-3.324l-.005-.002a2.868 2.868 0 0 1-2.067-3.865v-.005a2.869 2.869 0 0 0-1.53-3.693l-.005-.002a2.868 2.868 0 0 1-1.274-4.195l.003-.003a2.868 2.868 0 0 0-.782-3.922l-.003-.002a2.868 2.868 0 0 1-.43-4.362l.003-.003a2.867 2.867 0 0 0 0-3.999l-.003-.003a2.868 2.868 0 0 1 .43-4.361l.004-.004a2.868 2.868 0 0 0 .781-3.921l-.003-.004a2.869 2.869 0 0 1 1.274-4.194l.004-.001a2.87 2.87 0 0 0 1.531-3.695v-.004a2.869 2.869 0 0 1 2.066-3.865l.006-.001a2.87 2.87 0 0 0 2.223-3.325v-.004a2.871 2.871 0 0 1 2.783-3.389h.004a2.87 2.87 0 0 0 2.83-2.827V13.9a2.872 2.872 0 0 1 3.392-2.78h.004A2.873 2.873 0 0 0 44.1 8.898v-.005a2.874 2.874 0 0 1 3.87-2.065l.004.001a2.874 2.874 0 0 0 3.698-1.53l.002-.004a2.874 2.874 0 0 1 4.198-1.273l.005.003a2.873 2.873 0 0 0 3.925-.78l.003-.003a2.874 2.874 0 0 1 4.365-.431l.004.003a2.875 2.875 0 0 0 4.003 0z" stroke="#FACB1B" stroke-width="2.096" fill="#FFF"/>
        <path d="M14.732 74.8 10.478 41.02c38.68-4.595 72.512-4.595 111.191 0L117.414 74.8c-35.856-4.246-66.825-4.245-102.68 0h-.002z" fill="#2D4FC4"/>
        <path d="M26.711 46.448a.71.71 0 0 1-.169.217.39.39 0 0 1-.232.076.58.58 0 0 1-.3-.085 6.397 6.397 0 0 0-.382-.195 3.676 3.676 0 0 0-.497-.189 1.924 1.924 0 0 0-.65-.07c-.434.019-.756.131-.964.336a.977.977 0 0 0-.292.777c.01.2.077.364.202.49.124.126.286.234.484.322s.422.163.67.229c.249.064.505.135.766.215.263.08.519.173.77.285.251.111.477.255.678.43.2.177.367.395.494.656.13.262.203.582.218.963.018.415-.038.806-.168 1.173a2.775 2.775 0 0 1-.578.974c-.26.28-.584.508-.97.678-.39.173-.837.27-1.336.291a4.177 4.177 0 0 1-.858-.05 4.92 4.92 0 0 1-.832-.208 4.476 4.476 0 0 1-.76-.342 3.266 3.266 0 0 1-.632-.46c.203-.368.303-.552.506-.918.043-.069.1-.127.173-.175a.463.463 0 0 1 .233-.076.634.634 0 0 1 .36.11c.13.077.277.163.443.255.166.094.359.178.575.251.218.074.476.105.774.092.436-.019.77-.135.997-.345.231-.211.338-.516.321-.913-.01-.23-.077-.414-.201-.552a1.446 1.446 0 0 0-.48-.337 3.61 3.61 0 0 0-.665-.22 18.227 18.227 0 0 1-.766-.196 6.23 6.23 0 0 1-.768-.267 2.319 2.319 0 0 1-.677-.435 2.19 2.19 0 0 1-.498-.693c-.132-.28-.207-.63-.228-1.053a2.515 2.515 0 0 1 .704-1.87 2.95 2.95 0 0 1 .929-.64 3.503 3.503 0 0 1 1.291-.283 4.398 4.398 0 0 1 1.533.19c.473.15.877.368 1.21.657l-.427.905m7.002 3.648c-.43-1.102-.645-1.653-1.077-2.754a9.59 9.59 0 0 1-.41-1.142 9.76 9.76 0 0 1-.327 1.18c-.35 1.125-.526 1.687-.873 2.811 1.074-.04 1.612-.058 2.687-.095m3.249 3.36c-.579.018-.869.026-1.448.045a.627.627 0 0 1-.635-.395l-.667-1.718c-1.44.048-2.16.074-3.6.127l-.544 1.762a.7.7 0 0 1-.207.294.587.587 0 0 1-.386.143l-1.46.058c1.263-3.701 1.9-5.55 3.19-9.246.771-.03 1.157-.042 1.928-.07 1.546 3.597 2.311 5.398 3.83 9m6.438-7.774c-1.062.025-1.593.038-2.656.066l.2 7.594-1.871.05-.215-7.593c-1.062.03-1.593.046-2.656.08l-.047-1.52c2.884-.09 4.325-.13 7.21-.198.013.609.021.913.036 1.52m3.465 7.524-1.876.039-.2-9.115 1.893-.04.184 9.116m6.968-7.484a.714.714 0 0 1-.176.212.384.384 0 0 1-.234.069.586.586 0 0 1-.298-.093 7.19 7.19 0 0 0-.376-.205 3.589 3.589 0 0 0-.491-.205 1.95 1.95 0 0 0-.647-.087c-.435.006-.76.109-.974.306a.979.979 0 0 0-.313.769.722.722 0 0 0 .186.497c.122.129.28.242.475.334.195.094.416.176.663.248.247.072.5.152.76.237.26.087.513.189.762.308.247.117.468.268.665.449.196.183.354.405.476.67.121.265.184.588.189.97.005.414-.062.803-.2 1.167a2.78 2.78 0 0 1-.608.956c-.267.274-.597.491-.99.652-.393.16-.842.244-1.342.251a4.18 4.18 0 0 1-.857-.075 4.877 4.877 0 0 1-.825-.231c-.264-.1-.514-.22-.748-.363a3.363 3.363 0 0 1-.62-.48l.533-.902a.552.552 0 0 1 .177-.17.46.46 0 0 1 .235-.07.638.638 0 0 1 .358.12c.126.081.27.17.435.27.163.097.353.187.567.267.215.08.472.117.77.113.437-.006.774-.112 1.008-.316.236-.205.352-.505.345-.904-.002-.23-.063-.416-.184-.556a1.433 1.433 0 0 0-.47-.352 3.598 3.598 0 0 0-.659-.239c-.247-.065-.5-.137-.759-.217a6.491 6.491 0 0 1-.76-.29 2.362 2.362 0 0 1-.664-.453 2.226 2.226 0 0 1-.477-.709c-.125-.282-.191-.634-.198-1.058a2.512 2.512 0 0 1 .757-1.847c.255-.252.57-.458.947-.613.375-.158.808-.24 1.298-.247a4.36 4.36 0 0 1 1.525.233c.47.164.866.394 1.192.691l-.453.893m4.158-.313.02 2.519c1.305-.01 1.959-.015 3.263-.02l.007 1.483c-1.303.005-1.955.009-3.258.02l.03 3.637-1.877.018-.092-9.118c2.318-.022 3.478-.03 5.799-.039l.005 1.477c-1.559.006-2.338.011-3.897.024m9.53 4.148c-.39-1.118-.585-1.675-.978-2.791a9.726 9.726 0 0 1-.368-1.157 9.42 9.42 0 0 1-.37 1.17 1015.6 1015.6 0 0 0-.974 2.776c1.076 0 1.613 0 2.69.002m3.125 3.472-1.448-.006a.637.637 0 0 1-.396-.117.704.704 0 0 1-.224-.3l-.606-1.741c-1.44-.004-2.161-.004-3.6-.002l-.607 1.741a.721.721 0 0 1-.218.287.595.595 0 0 1-.39.13l-1.462.004a1214.5 1214.5 0 0 1 3.52-9.125h1.928a1190.49 1190.49 0 0 1 3.503 9.13m7.009-2.18c.104.001.19.04.26.116l.731.808c-.372.465-.83.815-1.374 1.05-.543.237-1.188.35-1.934.344-.675-.008-1.281-.13-1.818-.367a3.957 3.957 0 0 1-1.367-.98 4.345 4.345 0 0 1-.863-1.483 5.512 5.512 0 0 1-.295-1.867c.003-.453.054-.882.155-1.29.1-.409.246-.783.436-1.126.188-.342.418-.65.685-.926.267-.274.57-.507.905-.7a4.332 4.332 0 0 1 1.1-.437 5.004 5.004 0 0 1 1.264-.142c.336.004.653.036.951.099a4.6 4.6 0 0 1 .835.256c.257.107.496.236.714.388.216.152.413.317.586.495l-.645.86a.596.596 0 0 1-.146.141.4.4 0 0 1-.238.06.533.533 0 0 1-.303-.11 5.36 5.36 0 0 0-.373-.243 2.77 2.77 0 0 0-.555-.245 2.812 2.812 0 0 0-.848-.117c-.38-.004-.73.063-1.048.197a2.256 2.256 0 0 0-.823.593c-.23.26-.408.58-.536.96-.128.38-.195.813-.198 1.3-.004.49.06.926.192 1.31.133.385.315.71.547.976.233.265.505.468.818.607.311.14.645.211 1.003.215a4.96 4.96 0 0 0 .576-.025c.172-.02.333-.054.48-.102.148-.048.288-.112.42-.19s.265-.177.4-.296a.691.691 0 0 1 .143-.093.369.369 0 0 1 .163-.036m8.859-5.2a873.668 873.668 0 0 0-2.656-.055l-.146 7.595-1.871-.033.131-7.597a874.607 874.607 0 0 0-2.657-.04l.021-1.522c2.885.042 4.327.068 7.211.132l-.033 1.52m3.12 7.673c-.75-.019-1.126-.029-1.876-.046l.214-9.115 1.896.046-.234 9.115m9.14-4.287a4.086 4.086 0 0 0-.143-1.29 2.718 2.718 0 0 0-.508-.987 2.33 2.33 0 0 0-.835-.638 2.924 2.924 0 0 0-1.137-.247 2.98 2.98 0 0 0-1.154.174c-.342.13-.635.324-.88.583a2.717 2.717 0 0 0-.57.951c-.135.375-.21.8-.224 1.278-.015.482.036.915.149 1.297.113.382.283.709.51.98.227.27.506.482.838.632.333.15.71.233 1.132.246.423.014.805-.043 1.143-.172.34-.13.63-.323.873-.578a2.69 2.69 0 0 0 .573-.945c.139-.374.216-.802.233-1.284m1.917.07a5.07 5.07 0 0 1-.403 1.839 4.382 4.382 0 0 1-.994 1.442c-.418.4-.916.709-1.492.925a4.902 4.902 0 0 1-1.9.293 4.89 4.89 0 0 1-1.88-.414 4.397 4.397 0 0 1-1.432-1.02 4.328 4.328 0 0 1-.902-1.503 5.055 5.055 0 0 1-.283-1.862 4.993 4.993 0 0 1 .387-1.84 4.306 4.306 0 0 1 .989-1.447 4.408 4.408 0 0 1 1.503-.933 4.952 4.952 0 0 1 1.918-.295c.697.022 1.33.162 1.894.418a4.34 4.34 0 0 1 1.436 1.031c.393.43.69.935.892 1.51.202.575.29 1.193.267 1.855m9.633-4.154-.43 9.108-.963-.045a.824.824 0 0 1-.362-.09.886.886 0 0 1-.281-.26 762.554 762.554 0 0 0-4.258-5.97 10.187 10.187 0 0 1 .004.83l-.215 5.268-1.645-.065.355-9.11.99.038c.08.004.148.009.204.018a.464.464 0 0 1 .153.05.684.684 0 0 1 .126.096c.04.04.085.092.132.156a808.885 808.885 0 0 1 4.301 5.997c-.009-.16-.014-.314-.016-.463-.002-.15 0-.29.006-.425l.237-5.21 1.662.077M26.891 62.753c1.226-.05 1.839-.075 3.064-.122.059 1.504.088 2.256.144 3.76-.44.357-.912.624-1.418.801a5.564 5.564 0 0 1-1.617.302c-.73.03-1.396-.057-1.998-.264a4.454 4.454 0 0 1-1.562-.901 4.311 4.311 0 0 1-1.044-1.43 4.961 4.961 0 0 1-.432-1.85 5.162 5.162 0 0 1 .242-1.891 4.22 4.22 0 0 1 .873-1.512 4.28 4.28 0 0 1 1.436-1.027c.569-.255 1.213-.398 1.93-.428.371-.016.718 0 1.043.048.323.047.623.12.9.215a4.231 4.231 0 0 1 1.4.81l-.506.862a.495.495 0 0 1-.31.258c-.131.034-.278.007-.437-.083a6.44 6.44 0 0 0-.444-.232 3.152 3.152 0 0 0-.991-.277 4.25 4.25 0 0 0-.657-.016 2.805 2.805 0 0 0-1.12.267c-.33.162-.609.38-.833.66-.225.277-.393.608-.504.99a3.95 3.95 0 0 0-.133 1.27c.022.503.113.948.27 1.338.156.39.368.714.634.974.265.261.577.456.938.583.36.126.755.18 1.189.163.293-.012.556-.054.784-.124.228-.07.45-.161.667-.275l-.061-1.532-1.008.04a.382.382 0 0 1-.283-.085.328.328 0 0 1-.112-.243l-.044-1.049m8.613 2.818c.299-.01.565-.07.799-.18.233-.11.43-.261.587-.455a1.92 1.92 0 0 0 .353-.696c.079-.27.113-.574.102-.909l-.165-5.425 1.855-.055.155 5.427a4.32 4.32 0 0 1-.218 1.53 3.484 3.484 0 0 1-.71 1.218c-.313.345-.698.62-1.153.82a4.094 4.094 0 0 1-1.552.333 4.147 4.147 0 0 1-1.575-.23 3.404 3.404 0 0 1-1.207-.745 3.44 3.44 0 0 1-.788-1.17 4.291 4.291 0 0 1-.316-1.512l-.2-5.425 1.855-.066.189 5.425c.01.336.066.636.16.9.095.265.227.49.398.672.17.183.376.322.616.416.24.095.513.137.815.127m10.215-2.23c-.41-1.108-.616-1.662-1.029-2.768a8.14 8.14 0 0 1-.193-.512 9.183 9.183 0 0 1-.197-.636 10.32 10.32 0 0 1-.167.655c-.059.2-.116.374-.17.522-.359 1.12-.538 1.68-.894 2.8 1.06-.027 1.59-.038 2.65-.062m3.16 3.401-1.426.027a.618.618 0 0 1-.391-.108.698.698 0 0 1-.23-.295l-.638-1.727c-1.42.03-2.128.046-3.547.08-.225.703-.335 1.054-.557 1.756a.726.726 0 0 1-.208.292.578.578 0 0 1-.383.138l-1.437.04c1.286-3.685 1.937-5.526 3.253-9.205l1.898-.044c1.48 3.616 2.215 5.426 3.667 9.046m3.817-4.862c.3-.005.558-.047.773-.126.218-.08.396-.19.533-.328.138-.138.238-.3.302-.484a1.82 1.82 0 0 0 .092-.605c-.007-.43-.15-.765-.436-1-.285-.235-.715-.349-1.292-.342l-.964.016c.017 1.153.027 1.729.043 2.883l.95-.014m4.372 4.75-1.66.017c-.31.003-.537-.115-.678-.357a959.391 959.391 0 0 0-1.73-2.774.754.754 0 0 0-.233-.237c-.084-.048-.21-.071-.374-.069l-.626.01.051 3.473-1.837.03-.155-9.116c1.129-.02 1.692-.028 2.82-.044.627-.009 1.165.051 1.611.178.448.125.814.305 1.101.536.288.232.499.51.634.832.134.323.204.68.208 1.07.004.302-.036.588-.118.859a2.57 2.57 0 0 1-.942 1.339 3.057 3.057 0 0 1-.796.424 1.687 1.687 0 0 1 .616.57 802.182 802.182 0 0 1 2.108 3.258m5.833-3.498c-.389-1.114-.584-1.671-.976-2.786a8.296 8.296 0 0 1-.185-.514c-.064-.198-.126-.41-.184-.64a9.01 9.01 0 0 1-.359 1.17c-.38 1.113-.568 1.67-.945 2.782 1.06-.006 1.59-.008 2.65-.012m3.098 3.459h-1.428a.608.608 0 0 1-.39-.116.708.708 0 0 1-.224-.297c-.24-.696-.361-1.044-.604-1.739-1.42.004-2.13.006-3.55.016l-.589 1.744a.714.714 0 0 1-.212.287.577.577 0 0 1-.386.132c-.575.003-.862.006-1.44.012 1.357-3.66 2.043-5.488 3.425-9.142l1.9-.01a1224.34 1224.34 0 0 1 3.498 9.113m8.807-9.073-.09 9.118-.95-.01a.83.83 0 0 1-.36-.075.875.875 0 0 1-.286-.25 797.384 797.384 0 0 0-4.413-5.807 9.153 9.153 0 0 1 .035.83l-.018 5.272-1.623-.004.015-9.118.977.003c.078 0 .145.004.2.01.057.006.107.02.152.045a.559.559 0 0 1 .13.091c.042.038.086.088.136.151a788.762 788.762 0 0 1 4.454 5.831 9.777 9.777 0 0 1-.04-.886l.04-5.215c.656.004.984.008 1.64.014m8.49 1.643c-1.048-.02-1.57-.03-2.619-.046l-.122 7.596-1.844-.029.108-7.594a637.394 637.394 0 0 0-2.62-.034l.018-1.52c2.843.031 4.264.053 7.109.107l-.03 1.52m3.267.024-.052 2.343c1.193.027 1.789.04 2.981.072l-.036 1.425c-1.19-.03-1.786-.045-2.977-.072l-.054 2.394c1.527.034 2.29.052 3.817.093l-.04 1.476c-2.265-.06-3.396-.086-5.66-.133.076-3.645.113-5.469.186-9.115 2.287.047 3.43.074 5.716.135l-.039 1.475a685.87 685.87 0 0 0-3.842-.093m7.374.194-.072 2.342c1.193.036 1.788.055 2.982.096L96.8 63.24c-1.19-.04-1.785-.06-2.976-.095l-.072 2.392c1.526.047 2.29.072 3.815.124l-.05 1.475a744.49 744.49 0 0 0-5.66-.176l.258-9.114c2.287.064 3.43.1 5.716.18-.022.59-.032.884-.051 1.474a914.668 914.668 0 0 0-3.841-.123m11.505 3.5a4.132 4.132 0 0 0-.13-1.294 2.725 2.725 0 0 0-.488-.99 2.306 2.306 0 0 0-.818-.643 2.832 2.832 0 0 0-1.117-.26l-1.581-.061c-.094 2.463-.14 3.696-.236 6.16l1.57.06c.418.018.794-.037 1.129-.164a2.28 2.28 0 0 0 .862-.574c.24-.256.43-.572.57-.948.139-.375.219-.804.24-1.286m1.894.083a4.998 4.998 0 0 1-.411 1.822 4.181 4.181 0 0 1-.99 1.4 4.222 4.222 0 0 1-1.477.88 4.938 4.938 0 0 1-1.875.264 614.09 614.09 0 0 0-3.417-.13l.33-9.112c1.381.05 2.071.076 3.451.131.688.027 1.31.167 1.865.416.555.25 1.025.585 1.408 1.007.384.422.674.915.868 1.48.195.567.277 1.181.248 1.842" fill="#FFF"/>
        <g fill="#FACB1B">
            <path d="m68.895 18.962 5.257.756c.444.065.627.642.31.979l-3.764 3.978a.599.599 0 0 0-.152.509l.947 5.553c.081.468-.379.83-.778.613l-4.719-2.578a.51.51 0 0 0-.503.006l-4.672 2.674c-.394.224-.86-.128-.79-.598l.848-5.573a.598.598 0 0 0-.16-.506l-3.836-3.898c-.323-.33-.15-.912.29-.984l5.243-.865a.543.543 0 0 0 .405-.32l2.301-5.083a.528.528 0 0 1 .97-.01l2.394 5.036c.08.17.233.285.41.31"/>
            <path d="m86.945 23.932 4.205.605c.354.053.5.514.247.783l-3.01 3.182a.48.48 0 0 0-.121.408l.756 4.442c.064.374-.302.665-.622.49l-3.776-2.062a.412.412 0 0 0-.402.006l-3.737 2.138c-.315.18-.689-.102-.632-.478l.678-4.458a.478.478 0 0 0-.128-.405l-3.068-3.12c-.258-.263-.122-.727.232-.786l4.194-.691a.44.44 0 0 0 .324-.256l1.842-4.067a.42.42 0 0 1 .775-.008l1.914 4.029a.436.436 0 0 0 .329.248m-37.39 0 4.206.605c.355.053.502.514.247.783l-3.01 3.182a.48.48 0 0 0-.12.408l.756 4.442c.064.374-.303.665-.622.49l-3.777-2.062a.412.412 0 0 0-.402.006l-3.738 2.138c-.314.18-.688-.102-.63-.478l.677-4.458a.48.48 0 0 0-.128-.405l-3.068-3.12c-.257-.263-.12-.727.233-.786l4.193-.691a.438.438 0 0 0 .324-.256l1.842-4.067a.42.42 0 0 1 .775-.008l1.916 4.029a.43.43 0 0 0 .327.248" opacity=".9"/>
        </g>
    </g>
</svg>
