<?xml version="1.0" encoding="UTF-8"?>
<svg width="94px" height="50px" viewBox="0 0 94 50" version="1.1" xmlns="http://www.w3.org/2000/svg" xmlns:xlink="http://www.w3.org/1999/xlink">
    <title>img-catfish-v1</title>
    <g id="Page-1" stroke="none" stroke-width="1" fill="none" fill-rule="evenodd">
        <g id="logo-1" transform="translate(-181.000000, 0.000000)" fill-rule="nonzero">
            <g id="img-catfish-v1" transform="translate(181.000000, 0.000000)">
                <path d="M7.519,39.4831306 C8.105,39.4831306 8.693,39.439 9.284,39.35 C9.87451154,39.2616867 10.4533915,39.108079 11.01,38.892 C11.5820118,38.6687861 12.1254855,38.3784187 12.629,38.027 C13.1699085,37.6477031 13.6569957,37.1969456 14.077,36.687 L12.922,35.189 C12.759,34.934 12.515,34.806 12.189,34.806 C11.939,34.806 11.715,34.886 11.514,35.048 C11.314,35.208 11.077,35.386 10.806,35.58 C10.4944388,35.7958036 10.1588546,35.97467 9.806,36.113 C9.409,36.273 8.891,36.354 8.251,36.354 C7.611,36.354 7.036,36.229 6.526,35.98 C6.00935344,35.724589 5.56252824,35.3474301 5.224,34.881 C4.866,34.398 4.592,33.802 4.402,33.091 C4.212,32.381 4.117,31.571 4.117,30.661 C4.117,29.785 4.204,29.001 4.377,28.307 C4.551,27.613 4.814,27.022 5.167,26.534 C5.5089612,26.0551787 5.96463671,25.6689199 6.493,25.41 C7.025,25.15 7.643,25.02 8.349,25.02 C8.902,25.02 9.366,25.083 9.74,25.21 C10.114,25.338 10.437,25.483 10.708,25.643 C10.98,25.804 11.213,25.949 11.408,26.076 C11.604,26.204 11.804,26.268 12.01,26.268 C12.227,26.268 12.393,26.223 12.507,26.134 C12.6387034,26.0273229 12.7563127,25.9043373 12.857,25.768 L13.914,24.27 C13.1927378,23.5238504 12.3335189,22.9247745 11.384,22.506 C10.445,22.096 9.352,21.89 8.104,21.89 C6.792,21.89 5.631,22.112 4.622,22.556 C3.64948269,22.9730949 2.78213025,23.6016607 2.083,24.396 C1.4,25.176 0.882,26.103 0.53,27.174 C0.176,28.245 0,29.408 0,30.662 C0,32.06 0.198,33.305 0.594,34.398 C0.99,35.491 1.53,36.415 2.214,37.17 C2.87725839,37.9104093 3.69339875,38.4979485 4.606,38.892 C5.52584979,39.2877896 6.51763246,39.489006 7.519,39.4831306 L7.519,39.4831306 Z M20.261,39.5 C20.858,39.5 21.403,39.447 21.897,39.342 C22.376146,39.2411275 22.8426535,39.0875254 23.288,38.884 C23.722,38.684 24.14,38.438 24.542,38.144 C24.943,37.849 25.355,37.508 25.778,37.12 L26.136,38.352 C26.256,38.707 26.419,38.942 26.625,39.059 C26.831,39.175 27.124,39.234 27.503,39.234 L29.326,39.234 L29.326,28.448 C29.326,27.483 29.188,26.595 28.911,25.785 C28.6564857,25.0120411 28.2437146,24.30059 27.699,23.696 C27.1543737,23.105118 26.4880529,22.63941 25.746,22.331 C24.976,22.004 24.102,21.841 23.126,21.841 C20.424,21.841 18.113,22.739 16.193,24.537 L16.909,25.852 C17.029,26.052 17.186,26.226 17.381,26.376 C17.576,26.526 17.815,26.601 18.097,26.601 C18.422,26.601 18.718,26.523 18.984,26.368 C19.25,26.212 19.545,26.038 19.871,25.843 C20.2302249,25.6329468 20.608591,25.4574921 21.001,25.319 C21.431,25.164 21.971,25.086 22.621,25.086 C23.521,25.086 24.211,25.361 24.688,25.91 C25.165,26.46 25.404,27.305 25.404,28.448 L25.404,29.447 C24.134,29.48 23.006,29.577 22.019,29.738 C21.032,29.898 20.166,30.107 19.423,30.362 C18.68,30.617 18.053,30.917 17.543,31.261 C17.033,31.605 16.619,31.971 16.299,32.36 C15.9941148,32.7209671 15.7594149,33.1357619 15.607,33.583 C15.4676583,33.9988602 15.3960784,34.4344174 15.395,34.873 C15.395,35.638 15.515,36.31 15.753,36.887 C15.993,37.464 16.328,37.947 16.763,38.335 C17.196,38.723 17.712,39.015 18.309,39.209 C18.9402516,39.4083222 19.5990595,39.5065359 20.261,39.5 L20.261,39.5 Z M21.498,36.67 C20.826,36.67 20.28,36.515 19.863,36.204 C19.445,35.894 19.236,35.378 19.236,34.656 C19.236,34.29 19.339,33.952 19.546,33.641 C19.752,33.331 20.093,33.059 20.571,32.826 C21.048,32.593 21.683,32.401 22.475,32.251 C23.267,32.101 24.243,31.999 25.405,31.943 L25.405,34.823 C24.829,35.444 24.24,35.908 23.638,36.213 C23.036,36.518 22.323,36.67 21.498,36.67 L21.498,36.67 Z M38.668,39.5 C39.481,39.5 40.268,39.372 41.028,39.117 C41.7670493,38.8732847 42.4519675,38.4888883 43.045,37.985 L41.841,35.988 C41.7722295,35.8859124 41.6901756,35.7934336 41.597,35.713 C41.5126249,35.6500304 41.4092026,35.6179095 41.304,35.622 C41.1996699,35.6238721 41.098034,35.6554382 41.011,35.713 C40.9017577,35.7805706 40.7903665,35.8446038 40.677,35.905 C40.553,35.971 40.407,36.035 40.238,36.096 C40.0358333,36.1624426 39.8237323,36.1935643 39.611,36.188 C39.167,36.188 38.817,36.038 38.561,35.738 C38.307,35.438 38.179,35.023 38.179,34.49 L38.179,25.236 L42.639,25.236 L42.639,22.306 L38.179,22.306 L38.179,16.93 L36.096,16.93 C35.858,16.93 35.662,16.991 35.51,17.113 C35.3517378,17.2452154 35.2428389,17.427066 35.201,17.629 L34.355,22.289 L31.67,22.739 L31.67,24.37 C31.67,24.659 31.746,24.875 31.898,25.02 C32.0461726,25.1628337 32.2452441,25.2405903 32.451,25.236 L34.16,25.236 L34.16,34.773 C34.16,36.249 34.547,37.406 35.323,38.243 C36.099,39.081 37.213,39.5 38.668,39.5 L38.668,39.5 Z M50.401,39.234 L50.401,25.236 L54.616,25.236 L54.616,22.306 L50.271,22.306 L50.271,21.174 C50.271,20.542 50.339,20.012 50.475,19.584 C50.61,19.158 50.808,18.814 51.069,18.553 C51.329,18.293 51.646,18.109 52.021,18.003 C52.395,17.898 52.821,17.846 53.298,17.846 C53.483,17.846 53.656,17.837 53.818,17.821 C53.982,17.804 54.125,17.771 54.25,17.721 C54.3676591,17.676374 54.4714789,17.6015271 54.551,17.504 C54.6323525,17.3959819 54.6778154,17.2651887 54.681,17.13 L54.763,15.066 C54.0675475,14.85067 53.3430015,14.7440794 52.615,14.7497663 C51.649,14.7497663 50.781,14.894 50.011,15.182 C49.2737946,15.4497839 48.6043698,15.8761539 48.05,16.431 C47.5001321,16.9944075 47.0782111,17.669754 46.813,18.411 C46.525,19.188 46.382,20.065 46.382,21.041 L46.382,22.306 L43.892,22.306 L43.892,23.987 C43.892,24.287 43.987,24.517 44.176,24.678 C44.366,24.839 44.619,24.953 44.933,25.019 L46.382,25.252 L46.382,39.234 L50.402,39.234 L50.401,39.234 L50.401,39.234 Z M58.994,19.76 C59.352,19.76 59.688,19.69 60.004,19.552 C60.318,19.412 60.592,19.227 60.825,18.994 C61.058,18.761 61.245,18.489 61.386,18.178 C61.527,17.868 61.598,17.535 61.598,17.18 C61.5954835,16.4811899 61.3177651,15.8115042 60.825,15.316 C60.5884445,15.0800643 60.3095889,14.8907682 60.003,14.758 C59.6850619,14.6184017 59.3412264,14.5475219 58.994,14.55 C58.647,14.55 58.319,14.62 58.01,14.758 C57.7,14.897 57.432,15.083 57.204,15.316 C56.976,15.549 56.794,15.826 56.659,16.148 C56.5220614,16.4747109 56.4526682,16.8257589 56.455,17.18 C56.455,17.535 56.523,17.868 56.659,18.178 C56.917333,18.7917295 57.4007185,19.2833444 58.01,19.552 C58.319,19.69 58.647,19.76 58.994,19.76 L58.994,19.76 Z M61.044,39.234 L61.044,22.156 L57.01,22.156 L57.01,39.234 L61.046,39.234 L61.044,39.234 L61.044,39.234 Z M69.751,39.5 C70.836,39.5 71.794,39.359 72.624,39.076 C73.454,38.793 74.151,38.399 74.715,37.894 C75.2718077,37.3993109 75.7088268,36.784475 75.993,36.096 C76.28,35.403 76.423,34.646 76.423,33.824 C76.423,33.136 76.307,32.548 76.073,32.06 C75.8495083,31.5842117 75.5345167,31.1570873 75.146,30.803 C74.7557842,30.4498271 74.3140521,30.158149 73.836,29.938 C73.348,29.71 72.852,29.508 72.347,29.33 C71.843,29.153 71.347,28.989 70.858,28.84 C70.4088311,28.7048633 69.9708453,28.5350184 69.548,28.332 C69.2016304,28.1702295 68.8872679,27.9473303 68.62,27.674 C68.3865506,27.423894 68.2608352,27.0920053 68.27,26.75 C68.27,26.196 68.496,25.746 68.946,25.402 C69.396,25.058 70.017,24.886 70.809,24.886 C71.319,24.886 71.761,24.942 72.136,25.053 C72.51,25.163 72.843,25.288 73.136,25.427 C73.429,25.566 73.687,25.691 73.909,25.802 C74.132,25.912 74.341,25.968 74.536,25.968 C74.6949922,25.9741292 74.8526465,25.93679 74.992,25.86 C75.111,25.788 75.225,25.663 75.333,25.485 L76.245,24.004 C75.615,23.372 74.829,22.861 73.885,22.473 C72.941,22.084 71.895,21.89 70.745,21.89 C69.713,21.89 68.805,22.032 68.018,22.315 C67.232,22.598 66.575,22.975 66.049,23.446 C65.5331637,23.9035094 65.1247663,24.4693242 64.853,25.103 C64.5821043,25.733801 64.4435787,26.4134954 64.446,27.1 C64.446,27.854 64.563,28.498 64.796,29.03 C65.029,29.563 65.338,30.013 65.724,30.379 C66.109,30.745 66.548,31.047 67.042,31.286 C67.535,31.525 68.04,31.733 68.555,31.91 C69.071,32.088 69.575,32.251 70.069,32.401 C70.562,32.551 71.002,32.721 71.387,32.909 C71.772,33.097 72.081,33.319 72.315,33.575 C72.548,33.83 72.665,34.157 72.665,34.557 C72.665,34.823 72.613,35.081 72.51,35.331 C72.407,35.581 72.244,35.799 72.022,35.988 C71.7707506,36.1922288 71.4834611,36.3475754 71.175,36.446 C70.834,36.562 70.425,36.621 69.947,36.621 C69.339,36.621 68.837,36.548 68.441,36.404 C68.0843867,36.277465 67.7388713,36.1215984 67.408,35.938 C67.115,35.772 66.858,35.616 66.635,35.472 C66.4253206,35.3320601 66.1790868,35.2569379 65.927,35.256 C65.677,35.256 65.471,35.306 65.309,35.406 C65.146,35.506 65.005,35.65 64.885,35.838 L63.958,37.403 C64.283,37.703 64.66,37.98 65.088,38.235 C65.518,38.49 65.984,38.712 66.488,38.901 C67.0011297,39.0914818 67.5293082,39.2386626 68.067,39.341 C68.615,39.447 69.177,39.5 69.751,39.5 L69.751,39.5 Z M83.471,39.234 L83.471,26.884 C83.9738761,26.3583587 84.5559184,25.9146569 85.196,25.569 C85.7968588,25.2484969 86.4680144,25.0825122 87.149,25.086 C88.103,25.086 88.814,25.372 89.28,25.943 C89.747,26.515 89.98,27.322 89.98,28.365 L89.98,39.234 L94,39.234 L94,28.364 C94,27.411 93.878,26.537 93.634,25.744 C93.39,24.95 93.032,24.268 92.56,23.696 C92.0830531,23.1208226 91.478312,22.6650409 90.794,22.365 C90.089,22.048 89.28,21.89 88.369,21.89 C87.317,21.89 86.399,22.084 85.619,22.473 C84.8306684,22.8663253 84.1064556,23.3767807 83.471,23.987 L83.471,14.5 L79.451,14.5 L79.451,39.234 L83.471,39.234 L83.471,39.234 Z" id="Shape" fill="#000000"></path>
                <path d="M2.408,49.946 L2.408,45.802 L3.897,45.802 L3.897,45.054 L5.68434189e-14,45.054 L5.68434189e-14,45.802 L1.49,45.802 L1.49,49.946 L2.408,49.946 Z M5.468,49.946 L5.468,47.808 L7.788,47.808 L7.788,49.946 L8.709,49.946 L8.709,45.054 L7.787,45.054 L7.787,47.158 L5.468,47.158 L5.468,45.054 L4.546,45.054 L4.546,49.946 L5.468,49.946 Z M12.924,49.946 L12.924,49.219 L10.731,49.219 L10.731,47.835 L12.46,47.835 L12.46,47.135 L10.73,47.135 L10.73,45.778 L12.923,45.778 L12.923,45.054 L9.81,45.054 L9.81,49.946 L12.925,49.946 L12.924,49.946 Z M17.357,49.946 L17.357,45.802 L18.847,45.802 L18.847,45.054 L14.949,45.054 L14.949,45.802 L16.439,45.802 L16.439,49.946 L17.357,49.946 L17.357,49.946 Z M21.733,49.946 L23.727,45.054 L22.986,45.054 C22.9152542,45.0521824 22.8460405,45.0747827 22.79,45.118 C22.7411084,45.1539777 22.7036139,45.203276 22.682,45.26 L21.524,48.244 C21.482697,48.3485956 21.4473078,48.4554309 21.418,48.564 C21.3851809,48.6845408 21.3555042,48.8059152 21.329,48.928 C21.2989383,48.8057915 21.2655929,48.6844142 21.229,48.564 C21.1958518,48.456036 21.1588278,48.3493002 21.118,48.244 L19.953,45.26 C19.9292156,45.2014666 19.8901991,45.1503654 19.84,45.112 C19.7837534,45.0712836 19.715365,45.0508376 19.646,45.054 L18.908,45.054 L20.903,49.946 L21.733,49.946 L21.733,49.946 Z M27.133,50 C27.406,50 27.648,49.959 27.86,49.877 C28.072,49.794 28.25,49.681 28.398,49.538 C28.5442237,49.3959253 28.6581389,49.2240293 28.732,49.034 C28.809,48.841 28.847,48.634 28.847,48.414 C28.847,48.21 28.814,48.038 28.75,47.896 C28.6891768,47.7598179 28.6014142,47.6373585 28.492,47.536 C28.3832648,47.4363403 28.2598148,47.3540403 28.126,47.292 C27.9890953,47.2279676 27.8488995,47.1712217 27.706,47.122 C27.5664515,47.0752841 27.4264446,47.0299485 27.286,46.986 C27.160562,46.94735 27.0384896,46.898521 26.921,46.84 C26.822848,46.7924308 26.7351446,46.7258034 26.663,46.644 C26.5964805,46.5634555 26.5616348,46.4614075 26.565,46.357 C26.564098,46.2712932 26.5804209,46.1862784 26.613,46.107 C26.6450198,46.0316084 26.6947613,45.9650578 26.758,45.913 C26.829281,45.8555834 26.9111728,45.8127686 26.999,45.787 C27.1076951,45.754801 27.2206488,45.739291 27.334,45.741 C27.475,45.741 27.597,45.758 27.701,45.793 C27.805,45.828 27.895,45.867 27.973,45.91 C28.05,45.953 28.117,45.992 28.173,46.027 C28.2186612,46.0587388 28.2724359,46.0767794 28.328,46.079 C28.373,46.079 28.411,46.069 28.442,46.047 C28.4780286,46.0192797 28.5076953,45.9841571 28.529,45.944 L28.759,45.514 C28.57652,45.3467247 28.3622762,45.2178383 28.129,45.135 C27.8707537,45.0427791 27.598203,44.9970718 27.324,45 C27.064,45 26.834,45.04 26.634,45.118 C26.434,45.198 26.264,45.302 26.128,45.433 C25.8610004,45.6851236 25.7091717,46.0357757 25.708,46.403 C25.708,46.627 25.741,46.815 25.805,46.967 C25.87,47.119 25.956,47.247 26.063,47.347 C26.17,47.449 26.293,47.532 26.429,47.595 C26.565,47.658 26.704,47.712 26.845,47.757 C26.987,47.802 27.125,47.844 27.262,47.882 C27.399,47.921 27.521,47.967 27.628,48.022 C27.7271753,48.0714284 27.8147624,48.1412936 27.885,48.227 C27.9530928,48.317517 27.9877232,48.4288291 27.983,48.542 C27.983,48.772 27.911,48.948 27.768,49.072 C27.624,49.194 27.422,49.256 27.16,49.256 C27.010295,49.2596456 26.8611827,49.2359232 26.72,49.186 C26.6090048,49.1449432 26.5021862,49.0933755 26.401,49.032 C26.3212404,48.983225 26.2428757,48.9322046 26.166,48.879 C26.1131042,48.8370119 26.0484418,48.8125451 25.981,48.809 C25.9401109,48.8086792 25.8999414,48.8197604 25.865,48.841 C25.8302455,48.8613967 25.7999726,48.8886083 25.776,48.921 L25.506,49.357 C25.602,49.454 25.712,49.542 25.834,49.621 C26.2224796,49.8667433 26.6723234,49.9980921 27.132,50 L27.133,50 L27.133,50 Z M30.568,49.946 L30.568,47.808 L32.888,47.808 L32.888,49.946 L33.81,49.946 L33.81,45.054 L32.887,45.054 L32.887,47.158 L30.568,47.158 L30.568,45.054 L29.646,45.054 L29.646,49.946 L30.568,49.946 Z M37.119,45 C37.37,45 37.606,45.029 37.826,45.086 C38.047,45.144 38.25,45.225 38.434,45.33 C38.8011337,45.5376185 39.102843,45.8438309 39.305,46.214 C39.407,46.399 39.485,46.6 39.539,46.817 C39.592,47.033 39.62,47.26 39.62,47.5 C39.62,47.859 39.56,48.191 39.44,48.496 C39.32,48.802 39.151,49.066 38.933,49.29 C38.7084996,49.5161679 38.4399554,49.6938359 38.144,49.812 C37.8177833,49.9406329 37.4696332,50.0044887 37.119,50 C36.746,50 36.405,49.937 36.097,49.812 C35.8006876,49.6939563 35.5317931,49.5162818 35.307,49.29 C35.0847458,49.0625965 34.91091,48.7924877 34.796,48.496 C34.6737526,48.1783147 34.6126797,47.8403782 34.616,47.5 C34.616,47.141 34.676,46.809 34.797,46.504 C34.918,46.198 35.088,45.934 35.308,45.71 C35.527,45.488 35.79,45.313 36.098,45.188 C36.4228691,45.0595328 36.7696792,44.9956735 37.119,45 L37.119,45 Z M37.119,45.775 C36.878,45.775 36.661,45.814 36.468,45.893 C36.2806306,45.9685028 36.1127732,46.0854219 35.977,46.235 C35.841,46.384 35.737,46.565 35.664,46.778 C35.591,46.99 35.554,47.232 35.554,47.5 C35.554,47.768 35.591,48.009 35.664,48.222 C35.737,48.435 35.841,48.616 35.977,48.764 C36.112,48.911 36.276,49.024 36.469,49.104 C36.661,49.182 36.878,49.222 37.119,49.222 C37.36,49.222 37.577,49.182 37.77,49.104 C37.962,49.024 38.126,48.911 38.26,48.764 C38.394,48.616 38.498,48.435 38.57,48.222 C38.6468204,47.9891868 38.684004,47.7451272 38.68,47.5 C38.68,47.232 38.644,46.991 38.571,46.778 C38.5052626,46.5775527 38.3990701,46.3927368 38.259,46.235 C38.1240992,46.0848816 37.9564309,45.967856 37.769,45.893 C37.5620281,45.8119136 37.3412664,45.7718369 37.119,45.775 L37.119,45.775 Z M42.3,49.946 L43.39,46.604 C43.4230469,46.506072 43.4514124,46.4066261 43.475,46.306 C43.5,46.423 43.528,46.522 43.557,46.604 L44.637,49.946 L45.467,49.946 L47,45.054 L46.28,45.054 C46.208444,45.0518219 46.1381605,45.0732584 46.08,45.115 C46.0287527,45.1491868 45.9914903,45.2006444 45.975,45.26 L45.135,48.187 C45.099,48.331 45.065,48.492 45.036,48.671 C45.0023207,48.5072272 44.9589104,48.3456074 44.906,48.187 L43.94,45.26 C43.9162156,45.2014666 43.8771991,45.1503654 43.827,45.112 C43.7704457,45.0711379 43.7016932,45.0506884 43.632,45.054 L43.362,45.054 C43.2912781,45.0523451 43.2221173,45.0749282 43.166,45.118 C43.1173973,45.1540359 43.0802408,45.2033463 43.059,45.26 L42.089,48.187 C42.0351835,48.3507636 41.9917638,48.5177627 41.959,48.687 L41.906,48.422 C41.8902093,48.3432553 41.8725376,48.2648996 41.853,48.187 L41.013,45.26 C40.9961691,45.1986587 40.9578357,45.1454179 40.905,45.11 C40.8457502,45.0710523 40.7758599,45.051483 40.705,45.054 L39.937,45.054 L41.467,49.946 L42.3,49.946 L42.3,49.946 Z" id="Shape" fill="#000000"></path>
                <path d="M56.086,10.888 L56.086,5.013 C56.086,4.877 56.082,4.729 56.072,4.568 C56.063,4.406 56.052,4.242 56.037,4.073 L58.747,9.338 C58.8219339,9.49229796 58.9400462,9.62152666 59.087,9.71 C59.2345025,9.79547519 59.4025484,9.83904263 59.573,9.836 L59.895,9.836 C60.0657656,9.83902241 60.2341279,9.79546256 60.382,9.71 C60.5284826,9.62095249 60.6464519,9.4918802 60.722,9.338 L63.432,4.088 C63.412,4.251 63.4,4.412 63.392,4.571 C63.386,4.73 63.382,4.877 63.382,5.013 L63.382,10.888 L65.469,10.888 L65.469,0.672929689 L63.662,0.672929689 C63.559,0.672929689 63.47,0.675 63.392,0.68 C63.3216427,0.683802081 63.25223,0.697954181 63.186,0.722 C63.1242498,0.746345223 63.0683566,0.783493793 63.022,0.831 C62.9637981,0.892312643 62.9152446,0.962108316 62.878,1.038 L60.259,6.198 C60.161,6.375 60.069,6.562 59.983,6.758 C59.896,6.955 59.813,7.156 59.734,7.361 C59.654,7.161 59.572,6.964 59.486,6.772 C59.4016073,6.58498137 59.3115659,6.40056338 59.216,6.219 L56.591,1.038 C56.5536496,0.962170683 56.5051066,0.892390212 56.447,0.831 C56.4009038,0.783180649 56.3449381,0.745983906 56.283,0.722 C56.2164518,0.697857835 56.146695,0.683704298 56.076,0.68 C55.9860964,0.674817479 55.8960513,0.672482976 55.806,0.672929689 L54,0.672929689 L54,10.888 L56.086,10.888 L56.086,10.888 Z M71.903,10.888 L71.903,2.552 L74.773,2.552 L74.773,0.673 L66.666,0.673 L66.666,2.552 L69.536,2.552 L69.536,10.888 L71.903,10.888 Z M81.033,10.888 L85.122,0.673 L83.204,0.673 C83.0260513,0.667204175 82.851557,0.723014096 82.71,0.831 C82.5878147,0.922252655 82.4921922,1.04445618 82.433,1.185 L80.473,6.653 C80.38,6.892 80.293,7.153 80.21,7.435 C80.129,7.718 80.055,8.013 79.99,8.322 C79.91,8.013 79.826,7.718 79.738,7.435 C79.649,7.152 79.558,6.892 79.465,6.653 L77.49,1.185 C77.4283542,1.0392323 77.3293594,0.912298129 77.203,0.817 C77.077,0.721 76.911,0.673 76.706,0.673 L74.802,0.673 L78.891,10.888 L81.033,10.888 L81.033,10.888 Z M86.243,4.718 C86.639,4.41 86.956,4.066 87.194,3.688 C87.433,3.309 87.59,2.913 87.667,2.499 C87.7437926,2.08260149 87.7380165,1.65517137 87.65,1.241 C87.5539898,0.800333772 87.3806426,0.380170004 87.138,-1.77635684e-15 L85.836,0.484 C85.7095783,0.522971899 85.6063128,0.614925637 85.553,0.736 C85.503,0.853 85.53,0.993 85.633,1.156 C85.853922,1.49199002 85.9819276,1.88049203 86.004,2.282 C86.014,2.457 86.003,2.623 85.973,2.78 C85.9216483,3.05293138 85.8231785,3.3148407 85.682,3.554 C85.622,3.653 85.565,3.73 85.514,3.786 C85.4803527,3.81935615 85.4532222,3.8586955 85.434,3.902 C85.4128172,3.94575862 85.4009016,3.99342108 85.399,4.042 C85.3910531,4.1556707 85.4532778,4.26268131 85.556,4.312 L86.242,4.718 L86.243,4.718 L86.243,4.718 Z M90.946,11 C91.3904429,11.0075629 91.8333711,10.9461669 92.259,10.818 C92.639,10.696 92.959,10.526 93.219,10.306 C93.477,10.086 93.672,9.825 93.803,9.521 C93.933,9.217 93.999,8.885 93.999,8.525 C93.999,8.231 93.951,7.978 93.855,7.768 C93.7656854,7.56533181 93.6360541,7.38296338 93.474,7.232 C93.3126564,7.08288867 93.1308152,6.95762029 92.934,6.86 C92.734,6.76 92.529,6.672 92.319,6.597 C92.1150025,6.52436162 91.9092755,6.4566751 91.702,6.394 C91.5188678,6.33978983 91.3389188,6.2753554 91.163,6.201 C91.0234936,6.14503527 90.8946239,6.06554874 90.782,5.966 C90.6872106,5.880421 90.634599,5.75766057 90.638,5.63 C90.63177,5.45602042 90.7147165,5.29088147 90.858,5.192 C91.006,5.086 91.217,5.034 91.492,5.034 C91.684,5.034 91.854,5.056 92.004,5.1 C92.153,5.145 92.287,5.193 92.406,5.244 L92.739,5.388 C92.8360485,5.4309065 92.9408916,5.45337287 93.047,5.454 C93.1309401,5.45769357 93.2142886,5.43832629 93.288,5.398 C93.3617817,5.35005191 93.4231296,5.28527675 93.467,5.209 L93.957,4.445 C93.8142786,4.30345749 93.6566997,4.17772965 93.487,4.07 C93.302,3.95092219 93.1053108,3.85106974 92.9,3.772 C92.4371769,3.59477742 91.9455917,3.50459697 91.45,3.50598388 C90.97,3.50598388 90.55,3.567 90.19,3.691 C89.8613242,3.79752432 89.5568587,3.96776676 89.294,4.192 C89.056,4.402 88.877,4.647 88.758,4.925 C88.6391073,5.20307279 88.5785251,5.50258014 88.58,5.805 C88.58,6.137 88.629,6.42 88.727,6.653 C88.825,6.887 88.953,7.084 89.112,7.246 C89.271,7.406 89.452,7.54 89.655,7.646 C89.858,7.75 90.065,7.84 90.275,7.916 C90.485,7.99 90.691,8.056 90.894,8.115 C91.097,8.173 91.278,8.237 91.436,8.305 C91.596,8.372 91.723,8.453 91.822,8.546 C91.9197029,8.63898378 91.9731663,8.76918723 91.969,8.904 C91.9688126,9.07178033 91.8940666,9.2307988 91.765,9.338 C91.6832348,9.40576919 91.5876854,9.45490891 91.485,9.482 C91.3459587,9.52012262 91.2021422,9.53797338 91.058,9.535 C90.82,9.535 90.623,9.507 90.467,9.451 C90.3253829,9.40175777 90.18822,9.34053625 90.057,9.268 L89.732,9.086 C89.6278434,9.02905437 89.5106922,9.00011114 89.392,9.002 C89.2757475,8.99745816 89.1605024,9.02514466 89.059,9.082 C88.9714738,9.13772679 88.8984633,9.21347955 88.846,9.303 L88.342,10.103 C88.482,10.229 88.65,10.347 88.846,10.457 C89.042,10.567 89.256,10.661 89.486,10.741 C89.718,10.821 89.956,10.883 90.204,10.93 C90.452,10.977 90.699,11 90.946,11 L90.946,11 Z" id="Shape" fill="#4A3B8F"></path>
                <path d="M0.92,10.43 C1.02,10.43 1.104,10.402 1.17,10.346 C1.23192904,10.2982215 1.27936067,10.2341715 1.307,10.161 L1.78,8.864 L4.407,8.864 L4.88,10.161 C4.912,10.238 4.96,10.301 5.025,10.353 C5.09698375,10.4066823 5.18528716,10.4338797 5.275,10.43 L6.187,10.43 L3.697,4.07 L2.494,4.07 L5.68434189e-14,10.43 L0.92,10.43 Z M4.104,8.028 L2.087,8.028 L2.855,5.922 C2.893,5.825 2.932,5.712 2.973,5.581 C3.013,5.451 3.053,5.311 3.091,5.161 C3.132,5.311 3.173,5.45 3.214,5.579 C3.255,5.708 3.294,5.819 3.332,5.913 L4.104,8.028 L4.104,8.028 Z M8.428,10.5 C8.778,10.5 9.09,10.446 9.362,10.34 C9.633,10.232 9.864,10.086 10.052,9.9 C10.241,9.714 10.384,9.495 10.482,9.244 C10.58,8.994 10.629,8.724 10.629,8.437 C10.629,8.174 10.587,7.949 10.504,7.765 C10.4262609,7.58803656 10.3136912,7.42853454 10.173,7.296 C10.0333531,7.16732966 9.87485541,7.06076525 9.703,6.98 C9.52780502,6.89615573 9.34782717,6.82269538 9.164,6.76 C8.98480555,6.6982502 8.80478929,6.63891151 8.624,6.582 C8.4632474,6.53106916 8.30676218,6.46753883 8.156,6.392 C8.02931325,6.33065299 7.91663456,6.24384614 7.825,6.137 C7.7395157,6.03191898 7.69509643,5.89937187 7.7,5.764 C7.7,5.646 7.72,5.539 7.761,5.44 C7.80204948,5.34210423 7.86580564,5.25538214 7.947,5.187 C8.03883543,5.11268866 8.144069,5.05667724 8.257,5.022 C8.379,4.982 8.523,4.963 8.687,4.963 C8.867,4.963 9.025,4.986 9.157,5.031 C9.291,5.077 9.407,5.127 9.507,5.183 C9.606,5.239 9.691,5.289 9.763,5.335 C9.82189988,5.3761137 9.89124636,5.3996915 9.963,5.403 C10.0148875,5.40482357 10.066013,5.39011626 10.109,5.361 C10.1557936,5.32517615 10.1940478,5.27940776 10.221,5.227 L10.515,4.668 C10.2822147,4.45088293 10.0076288,4.2834774 9.708,4.176 C9.37627068,4.05602623 9.0257396,3.99641901 8.673,4 C8.34,4 8.045,4.051 7.787,4.154 C7.5460724,4.24672119 7.32560191,4.38566177 7.138,4.563 C6.963,4.733 6.829,4.928 6.738,5.148 C6.64633876,5.36193772 6.59905097,5.59225308 6.599,5.825 C6.599,6.115 6.641,6.359 6.724,6.557 C6.807,6.755 6.918,6.92 7.055,7.052 C7.193,7.184 7.349,7.291 7.525,7.373 C7.7,7.455 7.878,7.526 8.059,7.584 C8.241,7.643 8.419,7.697 8.594,7.747 C8.77,7.797 8.926,7.857 9.064,7.929 C9.201,8.001 9.311,8.09 9.394,8.196 C9.48177989,8.31374079 9.52596178,8.45830393 9.519,8.605 C9.519,8.904 9.427,9.133 9.243,9.293 C9.059,9.453 8.799,9.533 8.463,9.533 C8.243,9.533 8.056,9.503 7.899,9.443 C7.75631702,9.38944695 7.61903551,9.32248036 7.489,9.243 C7.38653442,9.17909033 7.28583034,9.11239889 7.187,9.043 C7.1194793,8.98859557 7.03658048,8.95676523 6.95,8.952 C6.89710536,8.95205836 6.84523403,8.96658233 6.8,8.994 C6.75564228,9.0201854 6.71717181,9.05525141 6.687,9.097 L6.34,9.664 C6.463,9.79 6.604,9.904 6.761,10.007 C7.25846197,10.3265497 7.83675172,10.4975736 8.428,10.5 L8.428,10.5 Z M15.368,10.5 C15.72,10.5 16.031,10.446 16.303,10.34 C16.575,10.232 16.805,10.086 16.993,9.9 C17.182,9.714 17.325,9.495 17.423,9.244 C17.521,8.994 17.57,8.724 17.57,8.437 C17.57,8.174 17.528,7.949 17.445,7.765 C17.3672609,7.58803656 17.2546912,7.42853454 17.114,7.296 C16.9745303,7.1671054 16.8159962,7.06051656 16.644,6.98 C16.4688812,6.89598382 16.288893,6.82251926 16.105,6.76 C15.9260892,6.69840181 15.7464082,6.63906376 15.566,6.582 C15.404541,6.53123532 15.2473782,6.46770142 15.096,6.392 C14.9699255,6.33012972 14.8576733,6.24338938 14.766,6.137 C14.6809174,6.03169831 14.63655,5.89930591 14.641,5.764 C14.641,5.646 14.661,5.539 14.702,5.44 C14.7430629,5.34184556 14.8072131,5.25505405 14.889,5.187 C14.9803423,5.1125076 15.0852863,5.05646956 15.198,5.022 C15.321,4.982 15.464,4.963 15.628,4.963 C15.808,4.963 15.966,4.986 16.098,5.031 C16.232,5.077 16.348,5.127 16.448,5.183 C16.547,5.239 16.632,5.289 16.704,5.335 C16.7629495,5.37601566 16.8322668,5.39958356 16.904,5.403 C16.9558875,5.40482357 17.007013,5.39011626 17.05,5.361 C17.0967936,5.32517615 17.1350478,5.27940776 17.162,5.227 L17.456,4.668 C17.2232147,4.45088293 16.9486288,4.2834774 16.649,4.176 C16.3172707,4.05602623 15.9667396,3.99641901 15.614,4 C15.281,4 14.986,4.051 14.729,4.154 C14.4876588,4.24648919 14.2668178,4.38544913 14.079,4.563 C13.904,4.733 13.77,4.928 13.679,5.148 C13.5873388,5.36193772 13.540051,5.59225308 13.54,5.825 C13.54,6.115 13.582,6.359 13.665,6.557 C13.749,6.755 13.859,6.92 13.996,7.052 C14.134,7.184 14.29,7.291 14.466,7.373 C14.641,7.455 14.819,7.526 15,7.584 C15.182,7.643 15.36,7.697 15.535,7.747 C15.711,7.797 15.867,7.857 16.005,7.929 C16.142,8.001 16.252,8.09 16.335,8.196 C16.4231358,8.31360833 16.4676749,8.45818348 16.461,8.605 C16.461,8.904 16.368,9.133 16.184,9.293 C16,9.453 15.74,9.533 15.404,9.533 C15.184,9.533 14.997,9.503 14.84,9.443 C14.697317,9.38944695 14.5600355,9.32248036 14.43,9.243 C14.3276852,9.17885606 14.2269872,9.11216863 14.128,9.043 C14.0604793,8.98859557 13.9775805,8.95676523 13.891,8.952 C13.8384095,8.95198452 13.7868403,8.96652082 13.742,8.994 C13.6971406,9.01988101 13.6582846,9.05498772 13.628,9.097 L13.282,9.664 C13.404,9.79 13.545,9.904 13.702,10.007 C14.0286976,10.2167096 14.391525,10.3638751 14.772,10.441 C14.968,10.481 15.167,10.5 15.369,10.5 L15.368,10.5 L15.368,10.5 Z M22.595,10.43 L22.595,9.484 L19.78,9.484 L19.78,7.685 L21.999,7.685 L21.999,6.775 L19.779,6.775 L19.779,5.012 L22.595,5.012 L22.595,4.07 L18.596,4.07 L18.596,10.43 L22.595,10.43 L22.595,10.43 Z M27.637,10.43 L27.637,9.484 L24.822,9.484 L24.822,7.685 L27.042,7.685 L27.042,6.775 L24.822,6.775 L24.822,5.012 L27.637,5.012 L27.637,4.07 L23.64,4.07 L23.64,10.43 L27.638,10.43 L27.637,10.43 L27.637,10.43 Z M29.72,10.43 L29.72,6.524 C29.72,6.36 29.711,6.181 29.694,5.988 L33.004,10.228 C33.063,10.301 33.124,10.353 33.186,10.383 C33.2597064,10.4164378 33.3401026,10.432517 33.421,10.43 L34.026,10.43 L34.026,4.06999981 L32.986,4.06999981 L32.986,7.936 C32.986,8.021 32.99,8.113 32.996,8.213 C33.002,8.313 33.009,8.414 33.018,8.517 L29.694,4.259 C29.6673253,4.22404025 29.6378983,4.19126918 29.606,4.161 C29.5822635,4.13791749 29.5553189,4.11838267 29.526,4.103 C29.4952709,4.08918552 29.4625188,4.0804066 29.429,4.077 C29.3858256,4.0723121 29.3424282,4.06999981 29.299,4.06999981 L28.681,4.06999981 L28.681,10.43 L29.721,10.43 L29.72,10.43 L29.72,10.43 Z M40.406,10.5 C40.888,10.5 41.326,10.419 41.721,10.256 C42.4915299,9.94513838 43.0957927,9.32454413 43.386,8.546 C43.539,8.148 43.616,7.716 43.616,7.25 C43.616,6.94 43.581,6.643 43.513,6.362 C43.3877952,5.82154681 43.1182063,5.32522673 42.733,4.926 C42.5439361,4.73166098 42.3288982,4.56440922 42.094,4.429 C41.8492307,4.28916454 41.5869235,4.18256019 41.314,4.112 C41.017452,4.03554843 40.7122371,3.99790078 40.406,4 C39.926,4 39.49,4.081 39.095,4.244 C38.7,4.407 38.362,4.634 38.08,4.924 C37.798,5.214 37.58,5.558 37.424,5.954 C37.2663052,6.36769172 37.1876111,6.80729331 37.192,7.25 C37.192,7.716 37.269,8.148 37.424,8.545 C37.579,8.942 37.798,9.286 38.08,9.576 C38.362,9.866 38.7,10.093 39.095,10.256 C39.49,10.419 39.927,10.5 40.406,10.5 L40.406,10.5 Z M40.406,9.488 C40.096,9.488 39.818,9.438 39.571,9.335 C39.3300695,9.23652754 39.1141543,9.08552353 38.939,8.893 C38.7581918,8.68868083 38.6219608,8.44891431 38.539,8.189 C38.4409599,7.88581827 38.3933273,7.56860505 38.398,7.25 C38.398,6.901 38.445,6.588 38.538,6.311 C38.632,6.034 38.765,5.799 38.939,5.605 C39.113,5.412 39.324,5.264 39.571,5.161 C39.8363289,5.05467062 40.1201969,5.00231652 40.406,5.007 C40.716,5.007 40.994,5.058 41.241,5.161 C41.488,5.264 41.698,5.411 41.871,5.605 C42.043,5.799 42.176,6.034 42.27,6.311 C42.363,6.588 42.41,6.901 42.41,7.25 C42.41,7.599 42.363,7.912 42.27,8.189 C42.1862428,8.44856472 42.0501002,8.68817561 41.87,8.893 C41.6963663,9.0859026 41.481329,9.23700991 41.241,9.335 C40.9754612,9.44050079 40.691694,9.49249646 40.406,9.488 L40.406,9.488 Z M45.694,10.43 L45.694,6.524 C45.694,6.36 45.685,6.181 45.668,5.988 L48.978,10.228 C49.037,10.301 49.098,10.353 49.16,10.383 C49.2337064,10.4164378 49.3141026,10.432517 49.395,10.43 L50,10.43 L50,4.06999981 L48.96,4.06999981 L48.96,7.936 C48.96,8.021 48.964,8.113 48.97,8.213 C48.975,8.313 48.983,8.414 48.991,8.517 L45.668,4.259 C45.6410404,4.22427723 45.6116321,4.19152702 45.58,4.161 C45.5561007,4.13766712 45.5287876,4.11810962 45.499,4.103 C45.4686259,4.08917298 45.4362005,4.08039109 45.403,4.077 C45.3598256,4.0723121 45.3164282,4.06999981 45.273,4.06999981 L44.655,4.06999981 L44.655,10.43 L45.695,10.43 L45.694,10.43 L45.694,10.43 Z" id="Shape" fill="#4A4A4A"></path>
            </g>
        </g>
    </g>
</svg>