<?xml version="1.0" encoding="UTF-8"?>
<svg width="72px" height="30px" viewBox="0 0 72 30" version="1.1" xmlns="http://www.w3.org/2000/svg" xmlns:xlink="http://www.w3.org/1999/xlink">
    <!-- Generator: Sketch 51.2 (57519) - http://www.bohemiancoding.com/sketch -->
    <title>norton_secure_seal</title>
    <desc>Created with Sketch.</desc>
    <defs>
        <polygon id="path-1" points="0.0137142854 0.173206349 0.0137142854 25.9634068 63.7954286 25.9634068 63.7954286 0.173206349 0.0137142854 0.173206349"></polygon>
    </defs>
    <g id="NEW-DESIGNS" stroke="none" stroke-width="1" fill="none" fill-rule="evenodd">
        <g id="BV-LandingPage-Desktop" transform="translate(-1146.000000, -484.000000)">
            <g id="Intro">
                <g id="Group-2" transform="translate(218.000000, 304.000000)">
                    <g id="norton_secure_seal" transform="translate(928.000000, 180.000000)">
                        <path d="M13.1595429,5.87844354 C6.98902857,5.87844354 1.96868571,10.8188735 1.96868571,16.891893 C1.96868571,22.9646875 6.98902857,27.9055673 13.1595429,27.9055673 L59.8048,27.9055673 C65.9748571,27.9055673 70.9954286,22.9646875 70.9954286,16.891893 C70.9954286,10.8188735 65.9748571,5.87844354 59.8048,5.87844354 L13.1595429,5.87844354" id="Fill-1" fill="#FFFFFE"></path>
                        <path d="M13.1595429,5.87844354 C6.98902857,5.87844354 1.96868571,10.8188735 1.96868571,16.891893 C1.96868571,22.9646875 6.98902857,27.9055673 13.1595429,27.9055673 L59.8048,27.9055673 C65.9748571,27.9055673 70.9954286,22.9646875 70.9954286,16.891893 C70.9954286,10.8188735 65.9748571,5.87844354 59.8048,5.87844354 L13.1595429,5.87844354 L13.1595429,5.87844354 Z M59.8048,28.8438059 L13.1595429,28.8438059 C6.46331429,28.8438059 1.01554286,23.4818322 1.01554286,16.891893 C1.01554286,10.3019537 6.46331429,4.94042993 13.1595429,4.94042993 L59.8048,4.94042993 C66.5010286,4.94042993 71.9488,10.3019537 71.9488,16.891893 C71.9488,23.4818322 66.5010286,28.8438059 59.8048,28.8438059 L59.8048,28.8438059 Z" id="Fill-2" fill="#BFC0BF"></path>
                        <path d="M54.2096,15.0871728 C53.2806857,15.0871728 52.5268571,14.3464345 52.5268571,13.4320399 C52.5268571,12.5167456 53.2806857,11.7757823 54.2096,11.7757823 C55.1385143,11.7757823 55.8925714,12.5167456 55.8925714,13.4320399 C55.8925714,14.3464345 55.1385143,15.0871728 54.2096,15.0871728 M54.2096,10.2038785 C52.3988571,10.2038785 50.9305143,11.6491392 50.9305143,13.4320399 C50.9305143,15.2140408 52.3988571,16.6581769 54.2096,16.6581769 C56.0214857,16.6581769 57.4889143,15.2140408 57.4889143,13.4320399 C57.4889143,11.6491392 56.0214857,10.2038785 54.2096,10.2038785" id="Fill-3" fill="#1A1919"></path>
                        <path d="M39.1693714,15.0871728 C38.2413714,15.0871728 37.4877714,14.3464345 37.4877714,13.4320399 C37.4877714,12.5167456 38.2413714,11.7757823 39.1693714,11.7757823 C40.0994286,11.7757823 40.8523429,12.5167456 40.8523429,13.4320399 C40.8523429,14.3464345 40.0994286,15.0871728 39.1693714,15.0871728 M39.1693714,10.2038785 C37.3586286,10.2038785 35.8905143,11.6491392 35.8905143,13.4320399 C35.8905143,15.2140408 37.3586286,16.6581769 39.1693714,16.6581769 C40.9812571,16.6581769 42.4498286,15.2140408 42.4498286,13.4320399 C42.4498286,11.6491392 40.9812571,10.2038785 39.1693714,10.2038785" id="Fill-4" fill="#1A1919"></path>
                        <path d="M50.7190857,15.1773751 C50.5117714,15.2367601 50.1945143,15.2952454 50.0738286,15.2952454 C49.5133714,15.2952454 49.3913143,15.1051683 49.3913143,14.5772263 L49.3913143,11.5956027 L50.7321143,11.5956027 L50.7321143,10.3496417 L49.3913143,10.3496417 L49.3913143,8.5883356 L47.8827429,8.5883356 L47.5657143,10.3496417 L46.5147429,10.3496417 L46.5147429,10.3505415 L46.4292571,10.3505415 C45.5698286,10.3545905 44.9216,10.8706104 44.5058286,11.6788317 L43.9812571,10.3496417 L42.8994286,10.3496417 L42.8994286,16.5423311 L44.7483429,16.5423311 L44.7483429,13.8479601 C44.7483429,12.4899773 45.5636571,11.622371 46.5300571,11.5956027 L47.5414857,11.5956027 L47.5414857,14.6741769 C47.5414857,16.1232617 48.2962286,16.6622259 49.5252571,16.6622259 C50.1595429,16.6622259 50.6457143,16.5304091 50.9373714,16.435258 L50.7190857,15.1773751" id="Fill-5" fill="#1A1919"></path>
                        <polyline id="Fill-6" fill="#1A1919" points="59.7291429 12.308673 59.7291429 16.5421061 57.9316571 16.5421061 57.9316571 10.3494168 59.0226286 10.3494168 59.3881143 11.2953034"></polyline>
                        <path d="M59.3801143,11.3013769 C59.9266286,10.6773841 60.6742857,10.2047782 61.5501714,10.2047782 C63.0477714,10.2047782 63.6637714,11.3796571 63.6637714,12.4692825 L63.6637714,16.5423311 L61.8128,16.5423311 L61.8128,12.5216943 C61.8128,11.9908281 61.3638857,11.7026757 60.8768,11.7026757 C60.3584,11.7026757 60.0251429,11.9948771 59.7323429,12.3068735" id="Fill-7" fill="#1A1919"></path>
                        <polyline id="Fill-8" fill="#1A1919" points="28.6784 8.10785669 30.7387429 8.10785669 33.568 13.4111202 33.568 8.10785669 35.2745143 8.10785669 35.2745143 16.5432308 33.4077714 16.5432308 30.3856 10.7120254 30.3856 16.5432308 28.6784 16.5432308 28.6784 8.10785669"></polyline>
                        <polyline id="Fill-9" fill="#9E9F9E" points="69.1241143 4.94065488 69.1241143 5.24275374 68.6752 5.24275374 68.6752 6.72850431 68.3248 6.72850431 68.3248 5.24275374 67.8841143 5.24275374 67.8841143 4.94065488 69.1241143 4.94065488"></polyline>
                        <polyline id="Fill-10" fill="#9E9F9E" points="69.3755429 6.72872925 69.3755429 4.94065488 69.8496 4.94065488 70.1645714 6.11148481 70.4848 4.94065488 70.9638857 4.94065488 70.9638857 6.72872925 70.6749714 6.72872925 70.6749714 5.33003175 70.6667429 5.33003175 70.2996571 6.72872925 70.0429714 6.72872925 69.6724571 5.33003175 69.6644571 5.33003175 69.6644571 6.72872925 69.3755429 6.72872925"></polyline>
                        <path d="M28.1641143,24.018322 L28.5917714,23.363737 C28.9392,23.6163483 29.4605714,23.8509642 30.0964571,23.8509642 C30.7145143,23.8509642 31.096,23.5754086 31.096,23.0969542 C31.096,22.5465179 30.6139429,22.4007546 29.8217143,22.129473 C29.1113143,21.8838349 28.4128,21.5311238 28.4128,20.5406984 C28.4128,19.6125823 29.1565714,19.1071347 30.1570286,19.1071347 C30.8221714,19.1071347 31.3122286,19.2360272 31.7069714,19.4647946 L31.3648,20.161219 C31.0336,19.9918367 30.6379429,19.8768907 30.1730286,19.8768907 C29.6155429,19.8768907 29.2813714,20.0838385 29.2813714,20.5188789 C29.2813714,21.0299501 29.6688,21.1597424 30.3974857,21.395483 C31.1574857,21.6379719 31.9938286,21.9839347 31.9938286,23.0812082 C31.9938286,24.0095492 31.3195429,24.62162 30.1097143,24.62162 C29.2118857,24.62162 28.5524571,24.3165968 28.1641143,24.018322" id="Fill-11" fill="#9E9F9E"></path>
                        <polyline id="Fill-12" fill="#9E9F9E" points="33.6162286 19.1914884 36.8555429 19.1914884 36.8555429 19.9324517 34.5380571 19.9324517 34.5380571 21.395483 36.3682286 21.395483 36.3682286 22.1204753 34.5380571 22.1204753 34.5380571 23.8113741 36.9963429 23.8113741 36.9963429 24.5512127 33.6162286 24.5512127 33.6162286 19.1914884"></polyline>
                        <path d="M38.3149714,21.8759619 C38.3149714,20.3119311 39.0758857,19.1084844 40.5947429,19.1084844 C41.2749714,19.1084844 41.8125714,19.320381 42.1910857,19.7542966 L41.6534857,20.3663673 C41.3284571,20.0532463 41.0528,19.8998349 40.6098286,19.8998349 C39.7181714,19.8998349 39.3065143,20.617854 39.3065143,21.9443447 C39.3065143,23.1894059 39.7410286,23.8203719 40.6178286,23.8203719 C41.1049143,23.8203719 41.4470857,23.5686603 41.7472,23.2557642 L42.2898286,23.8509642 C41.8950857,24.3096236 41.4009143,24.62162 40.6098286,24.62162 C39.0436571,24.62162 38.3149714,23.446741 38.3149714,21.8759619" id="Fill-13" fill="#9E9F9E"></path>
                        <path d="M43.7913143,22.4999546 L43.7913143,19.1914884 L44.7202286,19.1914884 L44.7202286,22.6475175 C44.7202286,23.3844317 44.9056,23.8667102 45.6957714,23.8667102 C46.4788571,23.8667102 46.6729143,23.3844317 46.6729143,22.6475175 L46.6729143,19.1914884 L47.6109714,19.1914884 L47.6109714,22.4999546 C47.6109714,23.82802 47.0916571,24.62162 45.6886857,24.62162 C44.3088,24.62162 43.7913143,23.82802 43.7913143,22.4999546" id="Fill-14" fill="#9E9F9E"></path>
                        <path d="M51.2022857,21.5788118 C51.8928,21.5788118 52.248,21.3579175 52.248,20.7388735 C52.248,20.1436735 51.8857143,19.9315519 51.2564571,19.9315519 L50.3810286,19.9315519 L50.3810286,21.5788118 L51.2022857,21.5788118 L51.2022857,21.5788118 Z M53.2948571,24.5523374 L52.2873143,24.5523374 L51.2416,22.2790603 L50.3810286,22.2790603 L50.3810286,24.5523374 L49.4589714,24.5523374 L49.4589714,19.1917134 L51.2356571,19.1917134 C52.3355429,19.1917134 53.1942857,19.5799655 53.1942857,20.7546195 C53.1942857,21.5560925 52.7060571,21.9582912 52.1625143,22.149493 L53.2948571,24.5523374 L53.2948571,24.5523374 Z" id="Fill-15" fill="#9E9F9E"></path>
                        <polyline id="Fill-16" fill="#9E9F9E" points="54.8717714 19.1914884 58.1108571 19.1914884 58.1108571 19.9324517 55.7926857 19.9324517 55.7926857 21.395483 57.6205714 21.395483 57.6205714 22.1204753 55.7926857 22.1204753 55.7926857 23.8113741 58.2496 23.8113741 58.2496 24.5512127 54.8717714 24.5512127 54.8717714 19.1914884"></polyline>
                        <g id="Group-20" transform="translate(0.000000, 3.824036)">
                            <mask id="mask-2" fill="white">
                                <use xlink:href="#path-1"></use>
                            </mask>
                            <g id="Clip-18"></g>
                            <path d="M61.1131429,19.9873379 C62.3846857,19.9873379 62.8194286,19.4099084 62.8194286,18.0280816 C62.8194286,16.8156372 62.4781714,16.1072907 61.2278857,16.1072907 L60.7328,16.1072907 L60.7328,19.9873379 L61.1131429,19.9873379 L61.1131429,19.9873379 Z M59.8068571,15.3674522 L61.1666286,15.3674522 C62.9421714,15.3674522 63.7954286,16.3133388 63.7954286,18.0280816 C63.7954286,19.7752163 62.9270857,20.7280762 61.2137143,20.7280762 L59.8068571,20.7280762 L59.8068571,15.3674522 L59.8068571,15.3674522 Z" id="Fill-17" fill="#9E9F9E" mask="url(#mask-2)"></path>
                            <path d="M13.1037714,4.2521034 C10.7122286,4.2521034 8.46262857,5.16942222 6.76868571,6.83445261 C5.0768,8.50038277 4.14491429,10.7142748 4.14491429,13.0678567 C4.14491429,15.4209887 5.0768,17.6348807 6.76868571,19.3019356 C8.46148571,20.9658413 10.7110857,21.8831601 13.1037714,21.8840599 C15.4950857,21.8831601 17.7446857,20.9658413 19.4386286,19.3008109 C21.1284571,17.6348807 22.0605714,15.4209887 22.0614857,13.0678567 C22.0605714,10.7142748 21.1284571,8.50038277 19.4377143,6.83355283 C17.7437714,5.16942222 15.4941714,4.2521034 13.1037714,4.2521034 M13.1037714,25.9634068 C5.87908571,25.9634068 0,20.1776399 0,13.0678567 C0,5.95784853 5.87908571,0.173206349 13.1037714,0.173206349 C20.3275429,0.173206349 26.2052571,5.95784853 26.2064,13.0678567 C26.2052571,20.1776399 20.3275429,25.9634068 13.1037714,25.9634068" id="Fill-19" fill="#F6BC25" mask="url(#mask-2)"></path>
                        </g>
                        <polygon id="Fill-21" fill="#F6BC25" points="27.3769143 3.01671474 28.3984 3.01671474 28.3984 2.01121814 27.3769143 2.01121814"></polygon>
                        <polygon id="Fill-22" fill="#F6BC25" points="27.3769143 1.01494422 28.3984 1.01494422 28.3984 0.00742312925 27.3769143 0.00742312925"></polygon>
                        <polygon id="Fill-23" fill="#F6BC25" points="24.5024 3.99116916 25.4564571 3.99116916 25.4564571 3.00951655 24.5024 3.00951655"></polygon>
                        <polygon id="Fill-24" fill="#1A1919" points="22.6109714 5.8761941 23.5732571 5.8761941 23.5732571 4.93728073 22.6109714 4.93728073"></polygon>
                        <polygon id="Fill-25" fill="#1A1919" points="25.4562286 4.93728073 26.5261714 4.93728073 26.5261714 3.9913941 25.4562286 3.9913941"></polygon>
                        <polygon id="Fill-26" fill="#1A1919" points="21.6528 4.93728073 22.6109714 4.93728073 22.6109714 4.03773243 21.6528 4.03773243"></polygon>
                        <polygon id="Fill-27" fill="#1A1919" points="24.5024 5.8761941 25.4564571 5.8761941 25.4564571 4.93728073 24.5024 4.93728073"></polygon>
                        <polygon id="Fill-28" fill="#1A1919" points="26.3661714 2.01121814 27.3769143 2.01121814 27.3769143 1.01471927 26.3661714 1.01471927"></polygon>
                        <polygon id="Fill-29" fill="#1A1919" points="24.5024 3.00951655 26.3661714 3.00951655 26.3661714 2.01121814 24.5024 2.01121814"></polygon>
                        <polygon id="Fill-30" fill="#1A1919" points="23.5732571 4.93728073 24.5021714 4.93728073 24.5021714 3.0097415 23.5732571 3.0097415"></polygon>
                        <path d="M23.5734857,5.8761941 L23.5734857,6.82230567 L22.6112,6.82230567 L22.6112,5.8761941 L21.0148571,5.8761941 L21.0148571,6.55777234 L20.1593143,6.55777234 L20.1593143,7.39861043 L21.1145143,7.39861043 L21.1145143,8.33572426 L20.1593143,8.33572426 L20.1593143,7.39861043 L19.1437714,7.39861043 L19.1437714,8.86861497 L18.1835429,8.86861497 L18.1835429,9.80662857 L17.5465143,9.80662857 L17.5465143,10.7486912 L16.8457143,10.7486912 C16.0587429,11.9006259 14.0859429,15.4913959 13.4902857,16.9533025 C11.3403429,14.0094694 9.67154286,12.8426884 8.35702857,12.4206948 C7.64845714,12.2105977 6.79405714,12.9704562 7.97142857,14.1660299 C10.6758857,17.0929923 11.5275429,19.5165315 12.3497143,21.4499193 C12.7846857,22.4693624 14.7341714,22.6279474 15.1257143,21.5896091 C15.9581714,19.395737 17.1650286,16.9305832 18.5942857,14.9058685 L18.5942857,13.8569578 L19.3572571,13.8569578 L19.3572571,12.9108463 L20.1593143,12.9108463 L20.1593143,11.8144726 L21.1174857,11.8144726 L21.1174857,10.7574639 L20.1483429,10.7574639 L20.1483429,9.79673107 L21.1174857,9.79673107 L21.1174857,10.7574639 L22.0656,10.7574639 L22.0637714,9.80662857 L22.8235429,9.80662857 L22.8235429,8.65874286 L23.6790857,8.65874286 L23.6790857,7.86919184 L24.5024,7.86919184 L24.5024,5.8761941 L23.5734857,5.8761941" id="Fill-31" fill="#1A1919"></path>
                    </g>
                </g>
            </g>
        </g>
    </g>
</svg>